SplineFontDB: 3.0
FontName: Coda
FullName: Coda
FamilyName: Coda
Weight: Book
Copyright: Copyright (c) 2011 by vernon adams. All rights reserved.
Version: 1.000;
ItalicAngle: 0
UnderlinePosition: -103
UnderlineWidth: 102
Ascent: 1638
Descent: 410
sfntRevision: 0x00010000
LayerCount: 2
Layer: 0 0 "Back"  1
Layer: 1 0 "Fore"  0
NeedsXUIDChange: 1
XUID: [1021 14 500265001 3631042]
FSType: 256
OS2Version: 4
OS2_WeightWidthSlopeOnly: 0
OS2_UseTypoMetrics: 1
CreationTime: 1313148003
ModificationTime: 1317851648
PfmFamily: 17
TTFWeight: 400
TTFWidth: 5
LineGap: 0
VLineGap: 0
Panose: 2 0 5 5 2 0 0 2 0 4
OS2TypoAscent: 72
OS2TypoAOffset: 1
OS2TypoDescent: 2
OS2TypoDOffset: 1
OS2TypoLinegap: 0
OS2WinAscent: 0
OS2WinAOffset: 1
OS2WinDescent: -134
OS2WinDOffset: 1
HheadAscent: -440
HheadAOffset: 1
HheadDescent: 283
HheadDOffset: 1
OS2SubXSize: 1331
OS2SubYSize: 1228
OS2SubXOff: 0
OS2SubYOff: 153
OS2SupXSize: 1331
OS2SupYSize: 1228
OS2SupXOff: 0
OS2SupYOff: 716
OS2StrikeYSize: 102
OS2StrikeYPos: 780
OS2Vendor: 'newt'
OS2CodePages: 20000093.00000000
OS2UnicodeRanges: 00000007.00000000.00000000.00000000
Lookup: 258 0 0 "'kern' Horizontal Kerning in Latin lookup 0"  {"'kern' Horizontal Kerning in Latin lookup 0 subtable" [304,0,0] } ['kern' ('DFLT' <'dflt' > 'latn' <'dflt' > ) ]
MarkAttachClasses: 1
DEI: 91125
KernClass2: 3 2 "'kern' Horizontal Kerning in Latin lookup 0 subtable" 
 3 T V
 0 
 11 a c e g o q
 0 {} 0 {} 0 {} -82 {} 0 {} 0 {}
LangName: 1033 "" "" "Regular" "1.000;;Coda" "" "Version 1.000;" "" "Coda is a trademark of vernon adams." "vernon adams" "vernon adams" "Copyright (c) 2011 by vernon adams. All rights reserved." "" "newtypography.co.uk" "" "http://scripts.sil.org/OFL" "" "Coda" "Book" "Coda" 
GaspTable: 1 65535 2 0
Encoding: UnicodeBmp
Compacted: 1
UnicodeInterp: none
NameList: Adobe Glyph List
DisplaySize: -48
AntiAlias: 1
FitToEm: 1
WidthSeparation: 304
WinInfo: 27 27 11
BeginPrivate: 0
EndPrivate
Grid
-2048 1091 m 0
 4096 1091 l 0
EndSplineSet

StartChar: exclam
Encoding: 33 33 5
Width: 456
GlyphClass: 2
Flags: HMW
LayerCount: 2
Fore
SplineSet
130 0 m 1
 131 228 l 1
 327 228 l 1
 328 0 l 1
 130 0 l 1
120 1418 m 0
 120 1510 161.333007812 1556 244 1556 c 0
 276.666992188 1556 300.333007812 1544.66699219 315 1522 c 128
 329.666992188 1499.33300781 337 1444.16699219 337 1356.5 c 128
 337 1268.83300781 309.666992188 992.666992188 255 528 c 0
 252.333007812 508 243.5 498 228.5 498 c 128
 194.372070312 498 200.731445312 542.444335938 196.5 581 c 128
 172.853515625 796.450195312 170.079101562 847.409179688 143 1123.5 c 128
 127.666992188 1279.83300781 120 1378 120 1418 c 0
EndSplineSet
EndChar

StartChar: quotedbl
Encoding: 34 34 6
Width: 659
GlyphClass: 2
Flags: HMW
LayerCount: 2
Fore
SplineSet
107 1363 m 128
 107 1459.14892417 116.977318318 1500 194 1500 c 0
 251.333333333 1500 280 1459.33333333 280 1378 c 128
 280 1296.66666667 269.666666667 1207.83333333 249 1111.5 c 128
 228.333333333 1015.16666667 216.666666667 960 214 946 c 128
 211.333333333 932 205.833333333 925 197.5 925 c 128
 177.051544612 925 179.225366366 934.180485941 173.5 955 c 128
 169.833333333 968.333333333 157.833333333 1024.5 137.5 1123.5 c 128
 117.166666667 1222.5 107 1302.33333333 107 1363 c 128
493 941.5 m 128
 493 928.797741906 492.307286695 925 478.5 925 c 128
 470.833333333 925 466 926.5 464 929.5 c 128
 462 932.5 448.833333333 982.666666667 424.5 1080 c 128
 400.166666667 1177.33333333 388 1258.33333333 388 1323 c 128
 388 1387.66666667 390.333333333 1428 395 1444 c 0
 405.666666667 1481.33333333 429 1500 465 1500 c 128
 557.881431561 1500 562 1461.57512487 562 1346.5 c 128
 562 1275.5 550.333333333 1191 527 1093 c 0
 504.333333333 997 493 946.5 493 941.5 c 128
EndSplineSet
EndChar

StartChar: numbersign
Encoding: 35 35 7
Width: 1370
GlyphClass: 2
Flags: HMW
LayerCount: 2
Fore
SplineSet
1239 419 m 1
 955 419 l 1
 873 0 l 1
 701 0 l 1
 783 419 l 1
 456 419 l 1
 372 0 l 1
 199 0 l 1
 280 419 l 1
 0 419 l 1
 32 568 l 1
 310 568 l 1
 389 972 l 1
 114 972 l 1
 146 1135 l 1
 423 1135 l 1
 497 1499 l 1
 676 1499 l 1
 602 1135 l 1
 922 1135 l 1
 994 1499 l 1
 1167 1499 l 1
 1095 1135 l 1
 1373 1135 l 1
 1346 972 l 1
 1062 972 l 1
 984 568 l 1
 1267 568 l 1
 1239 419 l 1
488 568 m 1
 811 568 l 1
 890 972 l 1
 569 972 l 1
 488 568 l 1
EndSplineSet
EndChar

StartChar: dollar
Encoding: 36 36 8
Width: 1119
GlyphClass: 2
Flags: HMW
LayerCount: 2
Fore
SplineSet
528 1632 m 1
 602 1632 l 1
 602 -115 l 1
 528 -115 l 1
 528 1632 l 1
572 173 m 0
 785.310546875 173 862 226.888671875 862 416 c 128
 862 544.595703125 854.4921875 599.505859375 784 649 c 128
 752.666992188 671 679.5 685 564.5 691 c 128
 449.5 697 371.333007812 705.333007812 330 716 c 0
 167.333007812 759.333007812 86 881.666992188 86 1083 c 0
 86 1261.66699219 122.5 1376.33300781 195.5 1427 c 128
 268.5 1477.66699219 372.666992188 1503 508 1503 c 128
 643.333007812 1503 744 1494.33300781 810 1477 c 0
 952 1437.66699219 1023 1314 1023 1106 c 1
 837 1106 l 1
 835.666992188 1211.33300781 809 1278.66699219 757 1308 c 0
 719.666992188 1329.33300781 647.333007812 1340 540 1340 c 128
 432.666992188 1340 362.833007812 1327.5 330.5 1302.5 c 128
 298.166992188 1277.5 282 1213.66699219 282 1111 c 128
 282 1008.33300781 298.666992188 943.333007812 332 916 c 128
 365.333007812 888.666992188 439.333007812 870.833007812 554 862.5 c 128
 668.666992188 854.166992188 759 841 825 823 c 0
 973 783 1047 653.333007812 1047 434 c 0
 1047 253.333007812 999.333007812 132 904 70 c 1
 847.333007812 34.6669921875 787.166992188 14.6669921875 723.5 10 c 128
 659.833007812 5.3330078125 599 3 541 3 c 0
 211.677734375 3 69 96.177734375 69 419 c 2
 69 436 l 1
 255 436 l 1
 254.333007812 430 254 424 254 418 c 2
 254 402 l 2
 254 268 308.333007812 194.666992188 417 182 c 0
 475 176 526.666992188 173 572 173 c 0
EndSplineSet
EndChar

StartChar: percent
Encoding: 37 37 9
Width: 2202
GlyphClass: 2
Flags: HMW
LayerCount: 2
Fore
SplineSet
89 1129 m 2
 89 1241.66666667 111 1318.33333333 155 1359 c 128
 199 1399.66666667 292.333333333 1420 435 1420 c 128
 577.666666667 1420 671.833333333 1399.5 717.5 1358.5 c 128
 763.166666667 1317.5 786 1241 786 1129 c 2
 786 795 l 2
 786 681.666666667 763.5 604.666666667 718.5 564 c 128
 673.5 523.333333333 579.333333333 503 436 503 c 128
 292.666666667 503 199 523.333333333 155 564 c 128
 111 604.666666667 89 681.666666667 89 795 c 2
 89 1129 l 2
436 1297 m 0
 335.333333333 1297 278 1291 264 1279 c 0
 245.333333333 1263.66666667 236 1214.33333333 236 1131 c 2
 236 782 l 2
 236 704.666666667 243.333333333 660.333333333 258 649 c 0
 276.666666667 634.333333333 336 627 436 627 c 256
 536 627 593.333333333 632.666666667 608 644 c 0
 626.666666667 658.666666667 636 704.666666667 636 782 c 2
 636 1131 l 2
 636 1214.33333333 628.666666667 1262 614 1274 c 0
 595.333333333 1289.33333333 536 1297 436 1297 c 0
1441 752 m 2
 1441 864.666666667 1463.16666667 941.333333333 1507.5 982 c 128
 1551.83333333 1022.66666667 1645.33333333 1043 1788 1043 c 128
 1930.66666667 1043 2024.5 1022.66666667 2069.5 982 c 128
 2114.5 941.333333333 2137 864.666666667 2137 752 c 2
 2137 418 l 2
 2137 304.666666667 2114.5 227.666666667 2069.5 187 c 128
 2024.5 146.333333333 1937.16666667 126 1807.5 126 c 128
 1677.83333333 126 1591.16666667 146.333333333 1547.5 187 c 128
 1503.83333333 227.666666667 1468.33333333 304.666666667 1441 418 c 1
 1441 752 l 2
1788 920 m 256
 1688 920 1630.66666667 914 1616 902 c 0
 1597.33333333 886.666666667 1588 837.333333333 1588 754 c 1
 1629 405 l 1
 1629 327.666666667 1635.66666667 283.333333333 1649 272 c 0
 1665.66666667 257.333333333 1718.66666667 250 1808 250 c 0
 1898 250 1949.33333333 255.666666667 1962 267 c 0
 1979.33333333 281.666666667 1988 327.666666667 1988 405 c 2
 1988 754 l 2
 1988 837.333333333 1980.66666667 885 1966 897 c 0
 1947.33333333 912.333333333 1888 920 1788 920 c 256
1384 1557 m 1
 1085 -38 l 1
 924 -38 l 1
 1219 1557 l 1
 1384 1557 l 1
EndSplineSet
EndChar

StartChar: ampersand
Encoding: 38 38 10
Width: 1347
GlyphClass: 2
Flags: HMW
LayerCount: 2
Fore
SplineSet
291 831 m 1
 191.666666667 845 142 965.666666667 142 1193 c 0
 142 1391.41921454 198.25420559 1492.62285808 362.5 1516.5 c 128
 438.166666667 1527.5 538.5 1533 663.5 1533 c 128
 788.5 1533 879.166666667 1530.66666667 935.5 1526 c 128
 1081.75065604 1513.88456104 1170 1465.04046987 1170 1312 c 128
 1170 1268.66666667 1167.33333333 1227.66666667 1162 1189 c 1
 1002 1189 l 1
 1002 1257 997.666666667 1302.33333333 989 1325 c 128
 980.333333333 1347.66666667 957.666666667 1361.66666667 921 1367 c 128
 884.333333333 1372.33333333 804.666666667 1375 682 1375 c 128
 559.333333333 1375 476.666666667 1371.33333333 434 1364 c 128
 391.333333333 1356.66666667 364.666666667 1338.33333333 354 1309 c 128
 343.333333333 1279.66666667 338 1229.5 338 1158.5 c 128
 338 1087.5 338.5 1036.66666667 339.5 1006 c 128
 342.066104481 927.306129249 355.082872048 900 444 900 c 2
 1002 900 l 1
 1002 1039 l 1
 1172 1039 l 1
 1172 901 l 1
 1312 901 l 1
 1312 752 l 1
 1172 752 l 1
 1172 472 1166.16666667 298.333333333 1154.5 231 c 128
 1131.81165181 100.055819046 1102.40208375 45.7504571456 993.5 5 c 128
 941.833333333 -14.3333333333 832 -24 664 -24 c 128
 496 -24 378 -16.6666666667 310 -2 c 0
 164.666666667 30 92 166.666666667 92 408 c 0
 92 585.333333333 125 708.666666667 191 778 c 0
 220.333333333 809.333333333 253.666666667 827 291 831 c 1
1002 482 m 2
 1002 752 l 1
 441 752 l 2
 338.667515823 752 304.957884586 741.987128859 295 654.5 c 128
 290.333333333 613.5 288 552.666666667 288 472 c 0
 288 331.333333333 293.666666667 244.166666667 305 210.5 c 128
 316.333333333 176.833333333 345.666666667 155.333333333 393 146 c 128
 440.333333333 136.666666667 530.333333333 132 663 132 c 128
 795.666666667 132 881 137.333333333 919 148 c 128
 957 158.666666667 980.333333333 185 989 227 c 128
 997.666666667 269 1002 354 1002 482 c 2
EndSplineSet
EndChar

StartChar: quotesingle
Encoding: 39 39 11
Width: 377
GlyphClass: 2
Flags: HMW
LayerCount: 2
Fore
SplineSet
107 1363 m 128
 107 1459.14892417 116.977318318 1500 194 1500 c 0
 251.333333333 1500 280 1459.33333333 280 1378 c 128
 280 1296.66666667 269.666666667 1207.83333333 249 1111.5 c 128
 228.333333333 1015.16666667 216.666666667 960 214 946 c 128
 211.333333333 932 205.833333333 925 197.5 925 c 128
 177.051544612 925 179.225366366 934.180485941 173.5 955 c 128
 169.833333333 968.333333333 157.833333333 1024.5 137.5 1123.5 c 128
 117.166666667 1222.5 107 1302.33333333 107 1363 c 128
EndSplineSet
EndChar

StartChar: parenleft
Encoding: 40 40 12
Width: 583
GlyphClass: 2
Flags: HMW
LayerCount: 2
Fore
SplineSet
100 816 m 0
 100 886 107 970 121 1068 c 0
 158.333333333 1325.33333333 233 1511.66666667 345 1627 c 0
 405.666666667 1690.33333333 480 1722 568 1722 c 2
 654 1722 l 1
 654 1577 l 1
 593 1577 l 2
 517 1577 453.333333333 1523.33333333 402 1416 c 0
 324.666666667 1254.66666667 286 1031 286 745 c 0
 286 683 295.5 592.333333333 314.5 473 c 128
 333.5 353.666666667 365.666666667 248.166666667 411 156.5 c 128
 456.333333333 64.8333333333 517 19 593 19 c 2
 654 19 l 1
 654 -125 l 1
 568 -125 l 2
 454 -125 358.333333333 -69.3333333333 281 42 c 0
 160.333333333 217.333333333 100 475.333333333 100 816 c 0
EndSplineSet
EndChar

StartChar: parenright
Encoding: 41 41 13
Width: 583
GlyphClass: 2
Flags: HMW
LayerCount: 2
Fore
SplineSet
-65 -125 m 1
 -65 19 l 1
 -3 19 l 2
 134.333333333 19 228.333333333 180.666666667 279 504 c 0
 295 602.666666667 303 696.333333333 303 785 c 128
 303 873.666666667 293.666666667 979.833333333 275 1103.5 c 128
 256.333333333 1227.16666667 224 1337 178 1433 c 128
 132 1529 71.6666666667 1577 -3 1577 c 2
 -65 1577 l 1
 -65 1722 l 1
 21 1722 l 2
 183.666666667 1722 308.333333333 1606 395 1374 c 0
 458.333333333 1203.33333333 490 1011 490 797 c 128
 490 583 458.333333333 388.666666667 395 214 c 0
 312.333333333 -12 187.666666667 -125 21 -125 c 2
 -65 -125 l 1
EndSplineSet
EndChar

StartChar: asterisk
Encoding: 42 42 14
Width: 977
GlyphClass: 2
Flags: HMW
LayerCount: 2
Fore
SplineSet
316 574 m 0
 279.546875 574 237 612.078125 237 648.5 c 128
 237 695.133789062 262.022460938 732.533203125 284 765.5 c 128
 339.737304688 849.106445312 418.044921875 924.403320312 483 997 c 1
 459 990.333007812 409.166992188 975 333.5 951 c 128
 257.833007812 927 196.666992188 915 150 915 c 0
 82.6669921875 915 49 945.166992188 49 1005.5 c 128
 49 1065.83300781 82 1096 148 1096 c 0
 194.666992188 1096 256 1083.66699219 332 1059 c 128
 408 1034.33300781 458.333007812 1018.66699219 483 1012 c 1
 319 1191.33300781 237 1298.66699219 237 1334 c 128
 237 1391.03417969 265.116210938 1436 314.5 1436 c 128
 361.374023438 1436 389.056640625 1389.87890625 406.5 1353 c 128
 451.124023438 1258.65234375 470.42578125 1132.21386719 499 1022 c 1
 515.59375 1086.00390625 522.986328125 1126.7265625 542.5 1209 c 128
 558.916015625 1278.21191406 603.069335938 1436 678 1436 c 128
 716.438476562 1436 758 1403.39355469 758 1353 c 128
 758 1313.87988281 730.6796875 1273.98828125 711 1244 c 128
 655.908203125 1160.04980469 580.858398438 1084.48828125 516 1012 c 1
 539.333007812 1018.66699219 589.166992188 1034.33300781 665.5 1059 c 128
 741.833007812 1083.66699219 802.333007812 1096 847 1096 c 0
 913 1096 946 1065.83300781 946 1005.5 c 128
 946 945.166992188 911.666992188 915 843 915 c 0
 794.333007812 915 733.333007812 927 660 951 c 128
 586.666992188 975 538.666992188 990.333007812 516 997 c 1
 677.333007812 817.666992188 758 710.166992188 758 674.5 c 128
 758 617.701171875 728.05078125 574 679.5 574 c 128
 635.140625 574 609.42578125 621.213867188 592.5 657 c 128
 547.7734375 751.565429688 527.501953125 878.0625 499 988 c 1
 495 970 490 947.333007812 484 920 c 0
 438 689.333007812 382 574 316 574 c 0
EndSplineSet
EndChar

StartChar: plus
Encoding: 43 43 15
Width: 842
GlyphClass: 2
Flags: HMW
LayerCount: 2
Fore
SplineSet
509 1117 m 1
 509 754 l 1
 817 754 l 1
 817 585 l 1
 509 585 l 1
 509 223 l 1
 343 223 l 1
 343 585 l 1
 36 585 l 1
 36 754 l 1
 343 754 l 1
 343 1117 l 1
 509 1117 l 1
EndSplineSet
EndChar

StartChar: comma
Encoding: 44 44 16
Width: 467
GlyphClass: 2
Flags: HMW
LayerCount: 2
Fore
SplineSet
247 309 m 128
 339.125598081 309 388 223.801038249 388 130.5 c 128
 388 -24.3129856646 319.140821964 -138.931282163 223 -199.5 c 128
 189.666666667 -220.5 159.166666667 -231 131.5 -231 c 128
 103.833333333 -231 84 -229.666666667 72 -227 c 1
 72 -159 l 1
 108.666666667 -159 146.5 -145.5 185.5 -118.5 c 128
 224.5 -91.5 244 -58.6666666667 244 -20 c 2
 244 0 l 1
 160.508985276 0 100 68.152539909 100 154 c 128
 100 243.632271774 157.496409405 309 247 309 c 128
EndSplineSet
EndChar

StartChar: hyphen
Encoding: 45 45 17
Width: 1046
GlyphClass: 2
Flags: HMW
LayerCount: 2
Fore
SplineSet
939 568 m 1
 112 568 l 1
 112 724 l 1
 939 724 l 1
 939 568 l 1
EndSplineSet
EndChar

StartChar: period
Encoding: 46 46 18
Width: 452
GlyphClass: 2
Flags: HMW
LayerCount: 2
Fore
SplineSet
229 -37 m 0
 145.131835938 -37 88 31.49609375 88 117 c 0
 88 201.655273438 136.586914062 271 229 271 c 0
 312.158203125 271 369 203.092773438 369 117 c 0
 369 34.041015625 320.928710938 -37 229 -37 c 0
EndSplineSet
EndChar

StartChar: slash
Encoding: 47 47 19
Width: 543
GlyphClass: 2
Flags: HMW
LayerCount: 2
Fore
SplineSet
511 1499 m 1
 190 0 l 1
 17 0 l 1
 338 1499 l 1
 511 1499 l 1
EndSplineSet
EndChar

StartChar: zero
Encoding: 48 48 20
Width: 1280
GlyphClass: 2
Flags: HMW
LayerCount: 2
Fore
SplineSet
1179 621 m 2
 1179 158.090824996 1091.60349854 -24 643 -24 c 0
 195.349717915 -24 107 158.685710831 107 621 c 2
 107 912 l 2
 107 1357.91643003 209.398152563 1523 643 1523 c 0
 1075.66156539 1523 1179 1357.35060705 1179 912 c 2
 1179 621 l 2
612.5 1366 m 128
 385.976864166 1366 299.30878044 1252.65886376 299.30878044 1038.99757467 c 2
 299.30878044 557 l 2
 299.30878044 272.368137295 359.466614834 139 639 139 c 0
 893.69474947 139 982 222.372744664 982 489 c 2
 982 1060 l 1
 975.39623696 1282.87700261 873.130191055 1366 612.5 1366 c 128
EndSplineSet
EndChar

StartChar: one
Encoding: 49 49 21
Width: 548
GlyphClass: 2
Flags: HMW
LayerCount: 2
Fore
SplineSet
33 1426 m 1
 130.333333333 1426 199.333333333 1450.33333333 240 1499 c 1
 403 1499 l 1
 403 0 l 1
 206 0 l 1
 206 1309 l 1
 33 1309 l 1
 33 1426 l 1
EndSplineSet
EndChar

StartChar: two
Encoding: 50 50 22
Width: 1068
GlyphClass: 2
Flags: HMW
LayerCount: 2
Fore
SplineSet
526 1524 m 0
 860.3473273 1524 977 1447.71160614 977 1115.5 c 128
 977 843.080469857 854.465993036 712.219447106 670 621 c 128
 502.338273338 538.090354947 378.306532344 458.526050679 299 302 c 0
 284.333333333 272.666666667 277 249 277 231 c 2
 277 185 l 1
 952 185 l 1
 952 1 l 1
 87 1 l 1
 87 189 l 2
 87 351 159.333333333 491.666666667 304 611 c 1
 419.583901682 703.057974791 574.54369046 784.180583322 680 858 c 1
 752.666666667 911.333333333 789 959.666666667 789 1003 c 2
 789 1077 l 2
 789 1326.47512719 760.866502707 1360 545 1360 c 0
 306.623215886 1360 267 1352.22558911 267 1120 c 1
 73 1120 l 1
 73 1363.96785681 156.71919172 1500.12121211 362 1516.5 c 128
 424.666666667 1521.5 479.333333333 1524 526 1524 c 0
EndSplineSet
EndChar

StartChar: three
Encoding: 51 51 23
Width: 1096
GlyphClass: 2
Flags: HMW
LayerCount: 2
Fore
SplineSet
452 1523 m 128
 840.902903275 1523 994 1481.7255527 994 1087 c 0
 994 905.50390625 948.848632812 804.616210938 824 763 c 1
 963.590319346 708.549392033 994 569.840271437 994 360.5 c 128
 994 227.217773438 948.421875 100.669921875 870.5 44 c 128
 778.237304688 -23.1005859375 653.577148438 -24 483.5 -24 c 128
 181.026778052 -24 53 42.4858598041 53 376 c 1
 246 376 l 1
 246 138.87774794 306.397809614 139 512 139 c 128
 658.559570312 139 762.69921875 135.494140625 787 257 c 128
 794.333007812 293.666992188 798 353 798 435 c 128
 798 685.357579595 727.278426104 689 468 689 c 1
 468 847 l 1
 512 847 551 846.666992188 585 846 c 0
 756.146857328 846 798 888.132485821 798 1073 c 128
 798 1150.33300781 794.833007812 1206 788.5 1240 c 128
 767.11328125 1354.81152344 666.579101562 1360 526 1360 c 0
 287.782681516 1360 246 1353.48472371 246 1120 c 1
 53 1120 l 1
 53 1413.59667969 164.639648438 1523 452 1523 c 128
EndSplineSet
EndChar

StartChar: four
Encoding: 52 52 24
Width: 1008
GlyphClass: 2
Flags: HMW
LayerCount: 2
Fore
SplineSet
630 392 m 1
 21 392 l 1
 21 564 l 1
 490 1499 l 1
 828 1499 l 1
 828 552 l 1
 958 552 l 1
 958 392 l 1
 828 392 l 1
 828 0 l 1
 630 0 l 1
 630 392 l 1
630 552 m 1
 630 1370 l 1
 228 552 l 1
 630 552 l 1
EndSplineSet
EndChar

StartChar: five
Encoding: 53 53 25
Width: 1166
GlyphClass: 2
Flags: HMW
LayerCount: 2
Fore
SplineSet
568 133 m 128
 801.244863555 133 886 133.540035608 886 365 c 128
 886 481.166330961 905.541525459 749.865218912 827 781.5 c 128
 794.51752106 794.583220684 658.60066705 802 588 802 c 0
 406.526457267 802 331.424110303 794.291696162 315 641 c 1
 126 641 l 1
 126 1501 l 1
 1009 1501 l 1
 1009 1338 l 1
 341 1338 l 1
 313 813 l 1
 313 913 440 963 694 963 c 0
 1009.89783918 963 1078 799.099189866 1078 456.5 c 128
 1078 265.5 1042.66666667 136.333333333 972 69 c 0
 878.5711016 -21.7970984451 728.499758913 -24 547 -24 c 128
 257.255756183 -24 117 63.3860302023 117 375 c 0
 117 385.666666667 117.333333333 396.333333333 118 407 c 1
 304 407 l 1
 304 162.076287451 336.221649952 133 568 133 c 128
EndSplineSet
EndChar

StartChar: six
Encoding: 54 54 26
Width: 1223
GlyphClass: 2
Flags: HMW
LayerCount: 2
Fore
SplineSet
637.5 964 m 128
 1024.16834394 964 1133 896.480413026 1133 529 c 128
 1133 113.376308367 1059.74843467 -24 664.5 -24 c 128
 258.991278081 -24 116 45.2986485228 116 467 c 2
 116 1031 l 2
 116 1400.24073342 230.75097141 1523 572.5 1523 c 128
 937.212407722 1523 1097 1485.10345486 1097 1131 c 1
 902 1131 l 1
 902 1354.7410062 866.112747331 1366 672 1366 c 0
 510.865858649 1366 363.1511096 1369.74271084 331 1259 c 128
 319 1217.66666667 313 1143.33333333 313 1036 c 2
 313 814 l 1
 325.666666667 914 433.833333333 964 637.5 964 c 128
632 133 m 256
 821.74017227 133 900.77200792 118.616033187 929.5 239 c 128
 936.5 268.333333333 940 346.333333333 940 473 c 128
 940 653.707493229 957.85235822 755.832335201 858.5 785 c 128
 822.166666667 795.666666667 746.166666667 801 630.5 801 c 128
 470.218108828 801 352.491403965 816.219913877 327 727 c 128
 317.666666667 694.333333333 313 618.666666667 313 500 c 128
 313 330.367654044 303.472664122 182.625948623 404.5 151 c 128
 442.833333333 139 518.666666667 133 632 133 c 256
EndSplineSet
EndChar

StartChar: seven
Encoding: 55 55 27
Width: 775
GlyphClass: 2
Flags: HMW
LayerCount: 2
Fore
SplineSet
11 1339 m 1
 11 1499 l 1
 742 1499 l 1
 742 1327 l 1
 293 0 l 1
 95 0 l 1
 565 1339 l 1
 11 1339 l 1
EndSplineSet
EndChar

StartChar: eight
Encoding: 56 56 28
Width: 1187
GlyphClass: 2
Flags: HMW
LayerCount: 2
Fore
SplineSet
598 1523 m 0
 911.703374512 1523 1039 1436.43122326 1039 1116 c 128
 1039 953.333333333 1009 848.666666667 949 802 c 1
 1059 713.333333333 1114 597.666666667 1114 455 c 128
 1114 208.647822019 1086.4395802 61.4065994254 916 9.5 c 128
 842.666666667 -12.8333333333 732.833333333 -24 586.5 -24 c 128
 440.166666667 -24 334.5 -14.6666666667 269.5 4 c 128
 117.94677203 47.5229782888 86.866286917 180.57824903 80 390 c 1
 80 418 l 2
 80 598 134.333333333 726 243 802 c 1
 183 850 153 955.166666667 153 1117.5 c 128
 153 1438.02649013 283.736416427 1523 598 1523 c 0
272 428 m 2
 272 149.301657806 276.198775286 133 568.5 133 c 128
 687.5 133 770.5 138.166666667 817.5 148.5 c 128
 920.528218253 171.151594084 923 270.782861639 923 414 c 0
 923 528.205444449 908.115003665 674.123425221 882 698 c 1
 811.333333333 708 741.333333333 713 672 713 c 2
 535 713 l 2
 447.666666667 713 378.333333333 706.666666667 327 694 c 1
 291 659.333333333 272.666666667 583.333333333 272 466 c 2
 272 428 l 2
597 1366 m 0
 329.56406662 1366 334 1333.0001675 334 1071 c 128
 334 965 346.333333333 895.666666667 371 863 c 1
 822 863 l 1
 846.666666667 897 859 966.5 859 1071.5 c 128
 859 1331.91578837 865.318093922 1366 597 1366 c 0
EndSplineSet
EndChar

StartChar: nine
Encoding: 57 57 29
Width: 1235
GlyphClass: 2
Flags: HMW
LayerCount: 2
Fore
SplineSet
326 378 m 1
 326 169.452963349 343.138158591 130 544 130 c 0
 597.333333333 130 662 133.333333333 738 140 c 0
 862.361613924 149.65915448 918.726615126 192.225510676 924 310.5 c 129
 924 683 l 1
 902 583 763.666666667 533 509 533 c 0
 180.080632881 533 97 686.226606979 97 1033 c 0
 97 1429.67920347 201.151394993 1523 604 1523 c 0
 1002.28909025 1523 1122 1435.99763049 1122 1042 c 2
 1122 468 l 2
 1122 95.9445311595 1004.22459353 -24 660 -24 c 128
 506 -24 397 -15.3333333333 333 2 c 1
 199 40.6666666667 132 172.666666667 132 378 c 1
 326 378 l 1
602.5 1366 m 128
 433.076149939 1366 328.193356811 1379.6858149 304 1276 c 128
 294.666666667 1236 290 1154.33333333 290 1031 c 128
 290 855.409879868 273.294953769 740.599652967 372.5 712 c 128
 409.5 701.333333333 486.666666667 696 604 696 c 128
 766.047937303 696 884.389310429 680.362586503 910 770 c 128
 919.333333333 802.666666667 924 878.666666667 924 998 c 128
 924 1168.47554838 934.582063395 1316.47453205 833 1348 c 128
 794.333333333 1360 717.5 1366 602.5 1366 c 128
EndSplineSet
EndChar

StartChar: colon
Encoding: 58 58 30
Width: 500
GlyphClass: 2
Flags: HMW
LayerCount: 2
Fore
SplineSet
254 925 m 0
 173.642479047 925 114 983.395623345 114 1079 c 0
 114 1173.16781698 164.486225521 1233 268 1233 c 128
 339.284361865 1233 394 1156.88509316 394 1079 c 0
 394 996.041222556 345.928356072 925 254 925 c 0
254 134 m 0
 173.642479047 134 114 192.395623345 114 288 c 0
 114 382.00056262 165.690553852 442 268 442 c 128
 339.284361865 442 394 365.885093156 394 288 c 0
 394 218.666666667 365.666666667 171.333333333 309 146 c 0
 292.333333333 138 274 134 254 134 c 0
EndSplineSet
EndChar

StartChar: semicolon
Encoding: 59 59 31
Width: 509
GlyphClass: 2
Flags: HMW
LayerCount: 2
Fore
SplineSet
266 439 m 128
 357.202603452 439 408 353.21993864 408 260.5 c 128
 408 106.662858657 338.528328462 -9.60114165231 242.5 -69.5 c 128
 208.833333333 -90.5 178.333333333 -101 151 -101 c 128
 123.666666667 -101 104 -99.6666666667 92 -97 c 1
 92 -29 l 1
 128.666666667 -29 166.5 -15.5 205.5 11.5 c 128
 244.5 38.5 264 71.3333333333 264 110 c 2
 264 130 l 1
 179.670997314 130 119 198.640628096 119 285 c 128
 119 374.124096064 177.364931713 439 266 439 c 128
264 925 m 0
 180.99122514 925 124 994.059211186 124 1079 c 0
 124 1162.75578562 171.88097603 1233 264 1233 c 0
 347.15772582 1233 404 1165.09254617 404 1079 c 0
 404 996.041222556 355.928356072 925 264 925 c 0
EndSplineSet
EndChar

StartChar: less
Encoding: 60 60 32
Width: 829
GlyphClass: 2
Flags: HMW
LayerCount: 2
Fore
SplineSet
30 838 m 1
 743 1276 l 1
 743 1045 l 1
 204 766 l 1
 743 478 l 1
 743 257 l 1
 30 676 l 1
 30 838 l 1
EndSplineSet
EndChar

StartChar: equal
Encoding: 61 61 33
Width: 1084
GlyphClass: 2
Flags: HMW
LayerCount: 2
Fore
SplineSet
957 854 m 1
 957 668 l 1
 131 668 l 1
 131 854 l 1
 957 854 l 1
957 305 m 1
 131 305 l 1
 131 491 l 1
 957 491 l 1
 957 305 l 1
EndSplineSet
EndChar

StartChar: greater
Encoding: 62 62 34
Width: 833
GlyphClass: 2
Flags: HMW
LayerCount: 2
Fore
SplineSet
813 838 m 1
 813 676 l 1
 98 257 l 1
 98 478 l 1
 638 766 l 1
 98 1045 l 1
 98 1276 l 1
 813 838 l 1
EndSplineSet
EndChar

StartChar: question
Encoding: 63 63 35
Width: 688
GlyphClass: 2
Flags: HMW
LayerCount: 2
Fore
SplineSet
276 1534 m 0
 518.666666667 1534 640 1414.33333333 640 1175 c 0
 640 1059 588.666666667 941.333333333 486 822 c 0
 378 697.333333333 318.666666667 586.666666667 308 490 c 1
 294 484.666666667 279.166666667 482 263.5 482 c 128
 247.833333333 482 235.333333333 486.333333333 226 495 c 1
 226 630.333333333 256 747 316 845 c 128
 376 943 412.833333333 1011.16666667 426.5 1049.5 c 128
 440.166666667 1087.83333333 447 1125.66666667 447 1163 c 0
 447 1287.66666667 385 1350 261 1350 c 0
 214.333333333 1350 140.666666667 1336 40 1308 c 1
 16 1473 l 1
 120 1513.66666667 206.666666667 1534 276 1534 c 0
160 0 m 1
 161 228 l 1
 357 228 l 1
 358 0 l 1
 160 0 l 1
EndSplineSet
EndChar

StartChar: at
Encoding: 64 64 36
Width: 1926
GlyphClass: 2
Flags: HMW
LayerCount: 2
Fore
SplineSet
592 1014 m 0
 592 1238.92596819 768.495582059 1266 1026 1266 c 0
 1284.66666667 1266 1414 1158.66666667 1414 944 c 2
 1414 215 l 1
 1598.79344054 215 1628.91025274 230.192274682 1645.5 379.5 c 128
 1650.5 424.5 1653 521.333333333 1653 670 c 128
 1653 1253.4079085 1563.32418748 1472 997 1472 c 128
 438.474186811 1472 275 1221.12547986 275 659 c 128
 275 104.250140632 392.996105294 -184 920 -184 c 0
 1116.95245149 -184 1350.42273772 -132.160350632 1549 -77 c 1
 1597 -224 l 1
 1413.66666667 -304 1212.16666667 -344 992.5 -344 c 128
 328.269586307 -344 85 -94.1941315164 85 627 c 0
 85 1320.37076191 326.31383641 1635 978 1635 c 0
 1677.94384721 1635 1841 1366.48177643 1841 661.5 c 128
 1841 240.055580726 1805.17291385 87 1454 87 c 0
 1352 87 1296.66666667 128.666666667 1288 212 c 1
 1264.66666667 111.333333333 1125.66666667 61 871 61 c 0
 609.76682547 61 529 141.74434023 529 410.5 c 128
 529 659.874649766 605.927128626 772 835.5 772 c 128
 937.166666667 772 1064.33333333 758.666666667 1217 732 c 1
 1217 959 l 2
 1217 1133.26712155 1144.16194585 1103 983.5 1103 c 128
 845.083431841 1103 763 1127.03190284 763 992 c 128
 763 963.333333333 764.333333333 933.666666667 767 903 c 1
 604 903 l 1
 596 943 592 966.666666667 592 1014 c 0
912.5 204 m 128
 1051.43859692 204 1217 169.203905907 1217 311 c 2
 1217 624 l 1
 908 624 l 2
 723.116735253 624 711 613.354647322 711 438.5 c 128
 711 243.86560081 714.048480985 204 912.5 204 c 128
EndSplineSet
EndChar

StartChar: A
Encoding: 65 65 37
Width: 1234
GlyphClass: 2
Flags: HMW
LayerCount: 2
Fore
SplineSet
878 388 m 1
 331 388 l 1
 223 0 l 1
 33 0 l 1
 480 1499 l 1
 758 1499 l 1
 1192 0 l 1
 989 0 l 1
 878 388 l 1
370 524 m 1
 840 524 l 1
 609 1363 l 1
 370 524 l 1
EndSplineSet
EndChar

StartChar: B
Encoding: 66 66 38
Width: 1298
GlyphClass: 2
Flags: HMW
LayerCount: 2
Fore
SplineSet
641 1499 m 2
 973.642088726 1499 1152.51367188 1450.77636719 1152.51367188 1150.92382812 c 0
 1152.51367188 945.760742188 1083.61425781 844.150390625 922 808 c 1
 1104.63736979 773.062972292 1198 651.401059734 1198 443 c 0
 1198 55.799196415 1039.5668467 0 651 0 c 2
 152 0 l 1
 152 1499 l 1
 641 1499 l 2
688 161 m 2
 934.67317295 161 1000.91699219 173.509647137 1000.91699219 427.893554688 c 0
 1000.91699219 656.423653427 926.926205864 719 674 719 c 2
 354 719 l 1
 354 161 l 1
 688 161 l 2
953.5390625 1106.28027344 m 0
 953.5390625 1309.37988281 895.017376051 1338 708 1338 c 2
 354 1338 l 1
 354 869 l 1
 657 869 l 2
 873.23046875 869 953.5390625 893.098632812 953.5390625 1106.28027344 c 0
EndSplineSet
EndChar

StartChar: C
Encoding: 67 67 39
Width: 1344
GlyphClass: 2
Flags: HMW
LayerCount: 2
Fore
SplineSet
123 903 m 2
 123 1369.27773228 184.558512392 1523 627 1523 c 128
 986.068359375 1523 1213 1511.76953125 1213 1166.5 c 128
 1213 1113.86997319 1210.33300781 1065.03638415 1205 1020 c 1
 1022 1020 l 1
 1017.49121094 1321.78145559 1062.01367188 1360 746 1360 c 128
 683.908203125 1360 627.359375 1362.79882812 577.297851562 1362.79882812 c 0
 312.10546875 1362.79882812 323 1228.60644531 323 903 c 2
 323 594 l 2
 323 232.144688027 297.904932557 137.995117188 632.0859375 137.995117188 c 0
 640.180664062 137.995117188 648.483398438 138 657 138 c 0
 709 138 770.0206503 137.886857406 840 140 c 0
 1050.82960271 146.366349722 1019.45390651 290.617352186 1022 497 c 1
 1205 497 l 1
 1208.33300781 442.81920904 1210 397.152542373 1210 360 c 0
 1210 16.8798828125 1047.22070312 -29 730 -29 c 0
 211.57275074 -29 123 68.442093866 123 594 c 2
 123 903 l 2
EndSplineSet
EndChar

StartChar: D
Encoding: 68 68 40
Width: 1364
GlyphClass: 2
Flags: HMW
LayerCount: 2
Fore
SplineSet
918 162 m 129
 984.258789062 182.015625 1020.18945312 225.6953125 1036 297.5 c 129
 1036 1197 l 129
 1022.01269531 1267.6015625 991.333984375 1315.75976562 930.5 1339 c 129
 353 1339 l 1
 353 162 l 1
 918 162 l 129
664 1499 m 2
 1168.12513289 1499 1237 1399.32998325 1237 903 c 2
 1237 594 l 2
 1237 298.1875 1216.42382812 91.3896484375 1024 34 c 128
 948 11.3330078125 828 0 664 0 c 2
 152 0 l 1
 152 1499 l 1
 664 1499 l 2
EndSplineSet
EndChar

StartChar: E
Encoding: 69 69 41
Width: 1115
GlyphClass: 2
Flags: HMW
LayerCount: 2
Fore
SplineSet
354 701 m 1
 354 164 l 1
 1011 164 l 1
 1001 0 l 5
 152 0 l 1
 152 1499 l 1
 986 1499 l 1
 996 1335 l 1
 354 1335 l 1
 354 865 l 1
 935 865 l 1
 935 701 l 1
 354 701 l 1
EndSplineSet
EndChar

StartChar: F
Encoding: 70 70 42
Width: 1005
GlyphClass: 2
Flags: HMW
LayerCount: 2
Fore
SplineSet
354 686 m 1
 354 0 l 1
 152 0 l 1
 152 1499 l 1
 943 1499 l 1
 953 1335 l 1
 354 1335 l 1
 354 850 l 1
 896 850 l 1
 896 686 l 1
 354 686 l 1
EndSplineSet
EndChar

StartChar: G
Encoding: 71 71 43
Width: 1344
GlyphClass: 2
Flags: HMW
LayerCount: 2
Fore
SplineSet
696 -24 m 128
 182.642022433 -24 122 68.3844053567 122 594 c 2
 122 903 l 2
 122 1366.33120304 181.252820401 1523 620.5 1523 c 128
 971.90234375 1523 1197 1516.38647815 1197 1198 c 128
 1197 1140.3030303 1193 1084.3030303 1185 1030 c 1
 1007 1030 l 1
 1007 1084.93296662 1008.3606892 1121.47851576 1008.3606892 1160.79722319 c 0
 1008.3606892 1331.89102122 970.485112231 1360 739 1360 c 128
 680.30859375 1360 626.537109375 1362.44628906 578.581054688 1362.44628906 c 0
 335.177022098 1362.44628906 322 1236.75863155 322 997.038756788 c 2
 322 594 l 2
 322 266.521793074 295.85384927 137.384765625 572.825195312 137.384765625 c 0
 620.260742188 137.384765625 676.3125 139 742.5 139 c 128
 910.833007812 139 1005 148.666992188 1025 168 c 1
 1025 606 l 1
 762 606 l 1
 762 748 l 1
 1206 748 l 1
 1206 53 l 1
 1112.66699219 1.6669921875 943.333007812 -24 696 -24 c 128
EndSplineSet
EndChar

StartChar: H
Encoding: 72 72 44
Width: 1373
GlyphClass: 2
Flags: HMW
LayerCount: 2
Fore
SplineSet
353 679 m 1
 353 0 l 1
 152 0 l 1
 152 1499 l 1
 353 1499 l 1
 353 840 l 1
 1021 840 l 1
 1021 1499 l 1
 1222 1499 l 1
 1222 0 l 1
 1021 0 l 1
 1021 679 l 1
 353 679 l 1
EndSplineSet
EndChar

StartChar: I
Encoding: 73 73 45
Width: 504
GlyphClass: 2
Flags: HMW
LayerCount: 2
Fore
SplineSet
353 0 m 1
 152 0 l 1
 152 1499 l 1
 353 1499 l 1
 353 0 l 1
EndSplineSet
EndChar

StartChar: J
Encoding: 74 74 46
Width: 617
GlyphClass: 2
Flags: HMW
LayerCount: 2
Fore
SplineSet
263 -24 m 0
 200.333007812 -24 131.666992188 -16 57 0 c 1
 57 157 l 5
 269 157 l 5
 269 1499 l 1
 469 1499 l 1
 469 177 l 2
 469 43 400.333007812 -24 263 -24 c 0
EndSplineSet
EndChar

StartChar: K
Encoding: 75 75 47
Width: 1178
GlyphClass: 2
Flags: HMW
LayerCount: 2
Fore
SplineSet
354 0 m 1
 152 0 l 1
 152 1499 l 1
 354 1499 l 1
 354 821 l 1
 885 1499 l 1
 1126 1499 l 1
 561 815 l 1
 1188 0 l 1
 942 0 l 1
 401 712 l 1
 354 657 l 1
 354 0 l 1
EndSplineSet
EndChar

StartChar: L
Encoding: 76 76 48
Width: 961
GlyphClass: 2
Flags: HMW
LayerCount: 2
Fore
SplineSet
152 0 m 1
 152 1499 l 1
 354 1499 l 1
 354 164 l 1
 914 164 l 5
 904 0 l 1
 152 0 l 1
EndSplineSet
EndChar

StartChar: M
Encoding: 77 77 49
Width: 1674
GlyphClass: 2
Flags: HMW
LayerCount: 2
Fore
SplineSet
347 1152 m 1
 273 0 l 1
 118 0 l 1
 188 1499 l 1
 407 1499 l 1
 833 326 l 1
 1255 1499 l 1
 1485 1499 l 1
 1556 0 l 1
 1366 0 l 1
 1294 1151 l 1
 890 0 l 1
 768 0 l 1
 347 1152 l 1
EndSplineSet
EndChar

StartChar: N
Encoding: 78 78 50
Width: 1396
GlyphClass: 2
Flags: HMW
LayerCount: 2
Fore
SplineSet
1080 1499 m 1
 1245 1499 l 1
 1245 0 l 1
 1041 0 l 1
 325 1194 l 5
 325 0 l 5
 152 0 l 1
 152 1499 l 1
 355 1499 l 1
 1080 287 l 1
 1080 1499 l 1
EndSplineSet
EndChar

StartChar: O
Encoding: 79 79 51
Width: 1396
GlyphClass: 2
Flags: HMW
LayerCount: 2
Fore
SplineSet
695 1360 m 0
 658.252929688 1360 623.629882812 1360.7265625 591.423828125 1360.7265625 c 0
 312.597546937 1360.7265625 322 1239.32402971 322 903 c 2
 322 594 l 1
 324.831497175 227.230881181 293.268635146 139 628.5 139 c 0
 696.135742188 139 758.896484375 135.177734375 814.48046875 135.177734375 c 0
 1080.5091736 135.177734375 1067 264.53770477 1067 594 c 2
 1067 903 l 2
 1067 1248.81195758 1085.62984922 1360.5 787.53125 1360.5 c 0
 758.217773438 1360.5 727.368164062 1360 695 1360 c 0
695 -24 m 0
 194.863024456 -24 122 86.8128855378 122 594 c 2
 122 903 l 2
 122 1413.67487286 195.98952117 1523 695 1523 c 0
 1195.33844011 1523 1268 1409.39257755 1268 903 c 2
 1268 594 l 2
 1268 82.2057163669 1194.69265911 -24 695 -24 c 0
EndSplineSet
EndChar

StartChar: P
Encoding: 80 80 52
Width: 1260
GlyphClass: 2
Flags: HMW
LayerCount: 2
Fore
SplineSet
682 1499 m 2
 1046.13574219 1499 1149 1387.91503906 1149 997 c 128
 1149 627.088217105 1057.26586064 497 838 497 c 130
 354 497 l 1
 354 0 l 1
 152 0 l 1
 152 1499 l 1
 682 1499 l 2
724 661 m 2
 925.232284331 661 948 710.249023438 948 965.5 c 128
 948 1118.00095161 946.09266865 1338 813 1338 c 130
 354 1338 l 1
 354 661 l 1
 724 661 l 2
EndSplineSet
EndChar

StartChar: Q
Encoding: 81 81 53
Width: 1396
GlyphClass: 2
Flags: HMW
LayerCount: 2
Fore
SplineSet
1232 -243 m 1
 1093 -358 l 1
 868 -21 l 1
 1049 38 l 1
 1232 -243 l 1
EndSplineSet
Refer: 51 79 N 1 0 0 1 0 0 2
EndChar

StartChar: R
Encoding: 82 82 54
Width: 1311
GlyphClass: 2
Flags: HMW
LayerCount: 2
Fore
SplineSet
680 1499 m 2
 1020.07324219 1499 1176 1431.10058594 1176 1092 c 128
 1176 879.380859375 1132.6953125 730.409179688 950 709 c 1
 1068 694.333007812 1135.33300781 612.333007812 1152 463 c 1
 1197 0 l 1
 995 0 l 1
 949 402 l 1
 928.46484375 571.111328125 916.677734375 621 744 621 c 2
 354 621 l 1
 354 0 l 1
 152 0 l 1
 152 1499 l 1
 680 1499 l 2
975 1017 m 128
 975 1287.34863281 963.362304688 1338 676 1338 c 2
 354 1338 l 1
 354 775 l 1
 690 775 l 2
 909.791015625 775 975 809.1796875 975 1017 c 128
EndSplineSet
EndChar

StartChar: S
Encoding: 83 83 55
Width: 1260
GlyphClass: 2
Flags: HMW
LayerCount: 2
Fore
SplineSet
339.708422517 1063.38043772 m 0
 339.708422517 988.709982099 346.203301861 941.07923077 420.5 919 c 0
 464.428714432 906.306856885 916.736820738 825.666892528 960 818 c 0
 1127.82368507 790 1165.00292969 631.389347695 1165.00292969 377.631835938 c 0
 1165.00292969 5.92902047801 954.184002558 -24 630 -24 c 0
 216.719221077 -24 118.256835938 44.2666354148 118.256835938 286.3671875 c 0
 118.256835938 322.837601875 120.809135633 363.574493441 125 409 c 5
 315 419 l 1
 309.119508779 374.135293663 306.070659281 317.064039065 306.063476562 286.1875 c 0
 306.063476562 149.990074428 382.932897384 138.202148438 632 138.202148438 c 0
 860.998734799 138.202148438 965 147.000158223 965 424.5 c 0
 965 561.986525771 944.948573994 637.016574869 903.885742188 644.715820312 c 2
 402 732 l 1
 202.166015625 775.661132812 138.989257812 856.33984375 138.989257812 1136.16992188 c 0
 138.989257812 1455.51370639 307.754910315 1521.11254608 624.001462282 1521.11254608 c 0
 952.537511732 1521.11254608 1119.52169452 1490.37232495 1119.52169452 1230.95611593 c 0
 1119.52169452 1204.3950693 1117.3504811 1175.16420115 1113 1143 c 1
 931 1133 l 1
 934.382451567 1161.10036687 936.19092235 1175.90045144 936.19092235 1197.78336415 c 0
 936.19092235 1344.10854521 855.329871437 1360 623.5 1360 c 0
 358.936502093 1360 339.708422517 1336.59396004 339.708422517 1063.38043772 c 0
EndSplineSet
EndChar

StartChar: T
Encoding: 84 84 56
Width: 903
GlyphClass: 2
Flags: HMW
LayerCount: 2
Fore
SplineSet
924 1499 m 1
 924 1335 l 1
 540 1335 l 1
 540 0 l 1
 340 0 l 1
 340 1335 l 1
 -36 1335 l 1
 -36 1499 l 1
 924 1499 l 1
EndSplineSet
EndChar

StartChar: U
Encoding: 85 85 57
Width: 1411
GlyphClass: 2
Flags: HMW
LayerCount: 2
Fore
SplineSet
704 139 m 256
 1019.671875 139 1069 188.704101562 1069 468 c 2
 1069 1499 l 1
 1270 1499 l 1
 1270 550 l 2
 1270 81.2078461441 1168.03805133 -24 704 -24 c 0
 230.830078125 -24 139 74.1650390625 139 550 c 2
 139 1499 l 1
 340 1499 l 1
 340 468 l 2
 340 166.767578125 401.514648438 139 704 139 c 256
EndSplineSet
EndChar

StartChar: V
Encoding: 86 86 58
Width: 1124
GlyphClass: 2
Flags: HMW
LayerCount: 2
Fore
SplineSet
559 259 m 1
 929 1499 l 1
 1147 1499 l 1
 658 0 l 1
 450 0 l 1
 -23 1499 l 1
 189 1499 l 1
 559 259 l 1
EndSplineSet
EndChar

StartChar: W
Encoding: 87 87 59
Width: 1730
GlyphClass: 2
Flags: HMW
LayerCount: 2
Fore
SplineSet
1269 269 m 1
 1505 1499 l 1
 1690 1499 l 5
 1366 0 l 5
 1149 0 l 1
 862 1183 l 1
 579 0 l 1
 362 0 l 1
 32 1499 l 1
 245 1499 l 1
 481 269 l 1
 769 1499 l 1
 972 1499 l 1
 1269 269 l 1
EndSplineSet
EndChar

StartChar: X
Encoding: 88 88 60
Width: 1168
GlyphClass: 2
Flags: HMW
LayerCount: 2
Fore
SplineSet
585 593 m 1
 261 0 l 1
 46 0 l 1
 472 770 l 1
 65 1499 l 1
 276 1499 l 1
 585 938 l 1
 895 1499 l 1
 1107 1499 l 1
 701 770 l 1
 1126 0 l 1
 910 0 l 1
 585 593 l 1
EndSplineSet
EndChar

StartChar: Y
Encoding: 89 89 61
Width: 997
GlyphClass: 2
Flags: HMW
LayerCount: 2
Fore
SplineSet
587 0 m 1
 387 0 l 1
 387 510 l 1
 -38 1499 l 1
 177 1499 l 1
 495 723 l 1
 819 1499 l 1
 1027 1499 l 1
 587 510 l 1
 587 0 l 1
EndSplineSet
EndChar

StartChar: Z
Encoding: 90 90 62
Width: 1054
GlyphClass: 2
Flags: HMW
LayerCount: 2
Fore
SplineSet
80 0 m 1
 80 150 l 1
 741 1332 l 1
 149 1332 l 1
 149 1499 l 1
 947 1499 l 1
 947 1325 l 1
 309 172 l 1
 947 172 l 1
 947 0 l 1
 80 0 l 1
EndSplineSet
EndChar

StartChar: bracketleft
Encoding: 91 91 63
Width: 691
GlyphClass: 2
Flags: HMW
LayerCount: 2
Fore
SplineSet
153 -262 m 1
 153 1690 l 1
 598 1690 l 1
 598 1543 l 1
 343 1543 l 1
 343 -114 l 1
 598 -114 l 1
 598 -262 l 1
 153 -262 l 1
EndSplineSet
EndChar

StartChar: backslash
Encoding: 92 92 64
Width: 525
GlyphClass: 2
Flags: HMW
LayerCount: 2
Fore
SplineSet
351 0 m 1
 58 1499 l 1
 255 1499 l 1
 548 0 l 1
 351 0 l 1
EndSplineSet
EndChar

StartChar: bracketright
Encoding: 93 93 65
Width: 654
GlyphClass: 2
Flags: HMW
LayerCount: 2
Fore
SplineSet
58 1690 m 1
 501 1690 l 1
 501 -262 l 1
 58 -262 l 1
 58 -114 l 1
 312 -114 l 1
 312 1543 l 1
 58 1543 l 1
 58 1690 l 1
EndSplineSet
EndChar

StartChar: asciicircum
Encoding: 94 94 66
Width: 782
GlyphClass: 2
Flags: HMW
LayerCount: 2
Fore
SplineSet
653.309120266 1445.17417746 m 1
 653.309120266 1419.17417746 622.840289659 1391.35958567 598.173297471 1391.35958567 c 1
 367 1627 l 1
 136.317134028 1391.85949411 l 1
 110.984126216 1391.85949411 80.3419774501 1419.75616479 80.3419774501 1446.42315698 c 1
 273 1754 l 2
 291 1783.33300781 322.333007812 1798 367 1798 c 0
 411 1798 442.333007812 1783.33300781 461 1754 c 2
 653.309120266 1445.17417746 l 1
EndSplineSet
EndChar

StartChar: underscore
Encoding: 95 95 67
Width: 1169
GlyphClass: 2
Flags: HMW
LayerCount: 2
Fore
SplineSet
1004 0 m 1
 1004 -127 l 1
 167 -127 l 1
 167 0 l 1
 1004 0 l 1
EndSplineSet
EndChar

StartChar: grave
Encoding: 96 96 68
Width: 625
GlyphClass: 2
Flags: HMW
LayerCount: 2
Fore
SplineSet
78 1540 m 128
 78 1596.84960938 113.547851562 1640 179.5 1640 c 128
 226.606445312 1640 261.965820312 1607.02929688 293 1581 c 128
 382.80213473 1505.68215157 465.258161671 1408.21031561 551 1332 c 128
 557 1326.66699219 560 1318.66699219 560 1308 c 128
 560 1297.33300781 547.666992188 1292 523 1292 c 128
 505.8578957 1292 150.177898032 1433.68550635 145 1438 c 1
 100.333007812 1462.66699219 78 1496.66699219 78 1540 c 128
EndSplineSet
EndChar

StartChar: a
Encoding: 97 97 69
Width: 1091
GlyphClass: 2
Flags: HMW
LayerCount: 2
Fore
SplineSet
779 186 m 1
 734.663085938 1.4345703125 587.974609375 -24 347 -24 c 128
 165.698242188 -24 94 57.4560546875 94 249.5 c 128
 94 415.690429688 109.208007812 461.622070312 198 504 c 0
 272.666992188 540 463 564.666992188 769 578 c 1
 769 841 l 2
 769 992.96943602 687.533884513 983 534 983 c 128
 412.658311029 983 313 996.869327817 313 884 c 128
 313 849.433628319 314.333007812 818.433360412 317 791 c 5
 152 791 l 1
 144 829 140 850.333007812 140 895 c 0
 140 1098.05761719 317.768554688 1123 547.5 1123 c 128
 809.30859375 1123 964 1068.32714844 964 816 c 2
 964 0 l 1
 816 0 l 1
 779 186 l 1
439 107 m 0
 724.236758404 107 770 179.437412807 770 469 c 1
 541.333007812 459.666992188 406.833007812 447.166992188 366.5 431.5 c 128
 279.508789062 397.709960938 273 390.188476562 273 263 c 128
 273 125.655273438 296.7421875 107 439 107 c 0
EndSplineSet
EndChar

StartChar: b
Encoding: 98 98 70
Width: 1177
GlyphClass: 2
Flags: HMW
LayerCount: 2
Fore
SplineSet
1063 370 m 2
 1063 86.6484375 997.42578125 -24 716 -24 c 0
 512 -24 389.333007812 16.6669921875 348 98 c 1
 326 0 l 1
 152 0 l 1
 152 1532 l 1
 347 1532 l 1
 347 1014 l 1
 359.869140625 1091.21289062 544.280273438 1123 683 1123 c 0
 955.234375 1123 1063 1036.28222656 1063 777 c 2
 1063 370 l 2
617.5 983 m 0
 509.94814791 983 369.527181112 994.896467176 347 924.5 c 1
 347 181 l 2
 347 101.790742984 497.634743684 116 595.5 116 c 0
 689.730522515 116 868 109.300003052 868 176 c 2
 868 925 l 2
 868 1000.04199219 721.105204856 983 617.5 983 c 0
EndSplineSet
EndChar

StartChar: c
Encoding: 99 99 71
Width: 1091
GlyphClass: 2
Flags: HMW
LayerCount: 2
Fore
SplineSet
547 1123 m 128
 832.356445312 1123 975 1093.01367188 975 851 c 0
 975 808.333007812 973.666992188 768.333007812 971 739 c 1
 783 739 l 1
 783 769 l 2
 783 993.266024736 777.071709895 983 559 983 c 128
 466.512283733 983 303 998.784937122 303 926.5 c 130
 303 171.5 l 130
 303 104.781730861 448.101944786 116 537.5 116 c 128
 735.139850616 116 783 95.3000030518 783 326 c 2
 783 354 l 1
 971 354 l 1
 972.333007812 341.333007812 973 330 973 320 c 2
 973 288 l 2
 973 8.8671875 860.850585938 -24 549 -24 c 256
 223.9921875 -24 108 31.8818359375 108 336.21875 c 2
 108 767 l 2
 108 1068.15234375 224.006835938 1123 547 1123 c 128
EndSplineSet
EndChar

StartChar: d
Encoding: 100 100 72
Width: 1156
GlyphClass: 2
Flags: HMW
LayerCount: 2
Fore
SplineSet
544 983 m 128
 451.126278303 983 299 998.891459167 299 924.5 c 130
 299 325 l 2
 299 104.154922804 329.951728183 116 534.5 116 c 128
 645.158897914 116 808 112.300003052 808 150.299804688 c 130
 808 768 l 2
 808 1016.97460938 744.128064299 983 544 983 c 128
444 -24 m 0
 169.845703125 -24 104 90.9892578125 104 370 c 2
 104 777 l 2
 104 1021.38476562 209.787109375 1123 461 1123 c 0
 653.666992188 1123 769.333007812 1087 808 1015 c 1
 808 1532 l 1
 1005 1532 l 1
 1005 0 l 1
 829 0 l 1
 807 98 l 1
 784.333007812 16.6669921875 663.333007812 -24 444 -24 c 0
EndSplineSet
EndChar

StartChar: e
Encoding: 101 101 73
Width: 1122
GlyphClass: 2
Flags: HMW
LayerCount: 2
Fore
SplineSet
572 116 m 128
 726.534251616 116 826 114 826 258 c 0
 826 307.333007812 825.333007812 337 824 347 c 1
 992 347 l 1
 994.666992188 269.666992188 996 228.666992188 996 224 c 0
 996 13.95703125 835.038085938 -24 594.5 -24 c 128
 243.079101562 -24 108 7.7958984375 108 342 c 2
 108 767 l 2
 108 1073.7109375 226.491210938 1123 560.5 1123 c 128
 895.459960938 1123 1009 1074.7890625 1009 767 c 2
 1009 555 l 1
 303 555 l 1
 303 183.5 l 130
 303 116 478.98593019 116 572 116 c 128
303 648 m 1
 814 648 l 1
 814 834.741210938 l 2
 813.460218352 999.207586674 747.204683612 983 561 983 c 128
 346.160151627 983 303 995.596449207 303 769 c 2
 303 648 l 1
EndSplineSet
EndChar

StartChar: f
Encoding: 102 102 74
Width: 686
GlyphClass: 2
Flags: HMW
LayerCount: 2
Fore
SplineSet
195 1228 m 2
 195 1431.53515625 234.291992188 1519 414 1519 c 128
 460 1519 519 1513 591 1501 c 1
 591 1365 l 1
 391 1365 l 1
 391 1091 l 5
 587 1091 l 5
 587 984 l 5
 391 984 l 5
 391 0 l 1
 195 0 l 1
 195 984 l 5
 67 984 l 5
 67 1091 l 5
 195 1091 l 5
 195 1228 l 2
EndSplineSet
EndChar

StartChar: g
Encoding: 103 103 75
Width: 1139
GlyphClass: 2
Flags: HMW
LayerCount: 2
Fore
SplineSet
550 983 m 128
 460.114618362 983 303 995.162190178 303 929 c 130
 303 325.864257812 l 2
 303 87.082690158 354.771040576 116 574.5 116 c 128
 670.244218213 116 805 121.037037037 805 184 c 130
 805 782 l 2
 805 1013.39668808 736.956695122 983 550 983 c 128
108 738 m 2
 108 1013.80957031 174.7890625 1123 449 1123 c 0
 646.333007812 1123 764.666992188 1082.33298189 804 1001 c 1
 826 1091 l 1
 1001 1091 l 1
 1001 15 l 2
 1001 -278.72265625 876.66015625 -365 576 -365 c 128
 420.666992188 -365 299.666992188 -347.666992188 213 -313 c 1
 240 -180 l 1
 318 -207.333007812 421.666992188 -221 551 -221 c 128
 661 -221 804 -218 804 -113 c 2
 804 72 l 1
 786.666992188 8 693 -24 525 -24 c 128
 219.510742188 -24 108 48.837890625 108 330 c 2
 108 738 l 2
EndSplineSet
EndChar

StartChar: h
Encoding: 104 104 76
Width: 1155
GlyphClass: 2
Flags: HMW
LayerCount: 2
Fore
SplineSet
834 742 m 2
 834 1010.11532935 790.516041893 984 579.5 984 c 128
 472.335928661 984 347 990.739257812 347 914.5 c 130
 347 0 l 1
 152 0 l 1
 152 1493 l 1
 347 1493 l 1
 347 1011 l 1
 394.333007812 1091.66699219 495.333007812 1132 650 1132 c 128
 949.91015625 1132 1031 1040.34570312 1031 750 c 2
 1031 0 l 1
 834 0 l 1
 834 742 l 2
EndSplineSet
EndChar

StartChar: i
Encoding: 105 105 77
Width: 501
GlyphClass: 2
Flags: HMW
LayerCount: 2
Fore
SplineSet
153 1091 m 5
 349 1091 l 5
 349 0 l 1
 153 0 l 1
 153 1091 l 5
153 1338 m 1
 153 1511 l 1
 349 1511 l 1
 349 1338 l 1
 153 1338 l 1
EndSplineSet
EndChar

StartChar: j
Encoding: 106 106 78
Width: 482
GlyphClass: 2
Flags: HMW
LayerCount: 2
Fore
SplineSet
329 -51 m 2
 329 -219.206054688 261.708007812 -300.516601562 105.727539062 -300.516601562 c 0
 64.5869140625 -300.516601562 20.75 -295.969726562 -31 -287 c 1
 -31 -158 l 1
 135 -158 l 1
 135 1091 l 1
 329 1091 l 1
 329 -51 l 2
331 1338 m 1
 135 1338 l 1
 135 1511 l 1
 331 1511 l 1
 331 1338 l 1
EndSplineSet
EndChar

StartChar: k
Encoding: 107 107 79
Width: 1086
GlyphClass: 2
Flags: HMW
LayerCount: 2
Fore
SplineSet
347 0 m 1
 152 0 l 1
 152 1493 l 1
 347 1493 l 1
 347 622 l 5
 794 1091 l 5
 1015 1091 l 5
 577.500976562 638.415039062 l 5
 1049 0 l 1
 834 0 l 1
 436.524414062 537.655273438 l 5
 347 454 l 5
 347 0 l 1
EndSplineSet
EndChar

StartChar: l
Encoding: 108 108 80
Width: 499
GlyphClass: 2
Flags: HMW
LayerCount: 2
Fore
SplineSet
348 0 m 1
 152 0 l 1
 152 1493 l 1
 348 1493 l 1
 348 0 l 1
EndSplineSet
EndChar

StartChar: m
Encoding: 109 109 81
Width: 1721
GlyphClass: 2
Flags: HMW
LayerCount: 2
Back
SplineSet
575.5 984 m 132
 467.31640625 984 331 968.456054688 331 887.5 c 134
 331 0 l 5
 136 0 l 5
 136 1091 l 5
 311 1091 l 5
 333 964 l 5
 333 1061.89941406 518.547851562 1124 669.5 1124 c 132
 926.580078125 1124 1005 1014.35644531 1005 750 c 6
 1005 0 l 5
 810 0 l 5
 810 752 l 6
 810 1005.08007812 782.124023438 984 575.5 984 c 132
EndSplineSet
Fore
SplineSet
333 968 m 1
 359 1071 494.6953125 1124 598 1124 c 0
 767.333007812 1124 875.333007812 1081.66699219 922 997 c 1
 968 1081.66699219 1066.16699219 1124 1216.5 1124 c 128
 1502.84570312 1124 1593 1045.078125 1593 771 c 2
 1593 0 l 1
 1397 0 l 1
 1397 918 l 2
 1397 971.312911184 1309.33300781 984 1222 984 c 0
 977.355754096 984 969 997.296134808 969 747 c 2
 969 0 l 1
 771 0 l 1
 771 743 l 2
 771 998.936515434 751.210785239 984 545 984 c 128
 451.445883028 984 331 964 331 891 c 130
 331 0 l 1
 136 0 l 1
 136 1091 l 1
 311 1091 l 1
 333 968 l 1
EndSplineSet
EndChar

StartChar: n
Encoding: 110 110 82
Width: 1130
GlyphClass: 2
Flags: HMW
LayerCount: 2
Fore
SplineSet
573.5 984 m 132
 465.31640625 984 329 968.456054688 329 887.5 c 134
 329 0 l 5
 134 0 l 5
 134 1091 l 5
 309 1091 l 5
 331 964 l 5
 331 1061.89941406 516.547851562 1124 667.5 1124 c 132
 924.580078125 1124 1003 1014.35644531 1003 750 c 6
 1003 0 l 5
 808 0 l 5
 808 752 l 6
 808 1005.08007812 780.124023438 984 573.5 984 c 132
EndSplineSet
EndChar

StartChar: o
Encoding: 111 111 83
Width: 1143
GlyphClass: 2
Flags: HMW
LayerCount: 2
Fore
SplineSet
567.013671875 -24 m 256
 227.924804688 -24 108.013671875 23.498046875 108.013671875 336.124023438 c 2
 108.013671875 767 l 2
 108.013671875 1076.13085938 227.631835938 1123 566.513671875 1123 c 0
 902.69140625 1123 1027.01367188 1077.23632812 1027.01367188 767 c 2
 1027.01367188 342 l 2
 1027.01367188 26.40234375 910.758789062 -24 567.013671875 -24 c 256
830.013671875 906.5 m 2
 830.013671875 1006.32324219 659.909492182 983 567.013671875 983 c 0
 473.84642243 983 303.013671875 1006.63867188 303.013671875 906.5 c 2
 303.013671875 181.5 l 2
 303.013671875 117.180172548 474.39134951 116 566.513671875 116 c 0
 658.82181156 116 830.013671875 124.261207833 830.013671875 181.5 c 2
 830.013671875 906.5 l 2
EndSplineSet
EndChar

StartChar: p
Encoding: 112 112 84
Width: 1154
GlyphClass: 2
Flags: HMW
LayerCount: 2
Fore
SplineSet
841 812.002929688 m 2
 841 994.198242188 782.346978017 983 589.5 983 c 128
 400.789547038 983 331 1014.17371246 331 782 c 2
 331 340 l 2
 331 125.999996245 384.72238985 116 589 116 c 128
 683.191190782 116 841 125.352936279 841 195.5 c 130
 841 812.002929688 l 2
1038 331 m 2
 1038 80.0078125 933.8515625 -24 677 -24 c 0
 483 -24 367.666992188 15 331 93 c 1
 331 -396 l 1
 136 -396 l 1
 136 1091 l 1
 311 1091 l 1
 332 1010 l 1
 332 1094.86484427 554.151524699 1123 717.5 1123 c 128
 969.44140625 1123 1038 1000.34667969 1038 738 c 2
 1038 331 l 2
EndSplineSet
EndChar

StartChar: q
Encoding: 113 113 85
Width: 1146
GlyphClass: 2
Flags: HMW
LayerCount: 2
Fore
SplineSet
553.5 116 m 128
 581.106445312 116 607.896484375 115.5390625 633.141601562 115.5390625 c 0
 724.565429688 115.5390625 795.720703125 121.587890625 812 177.5 c 129
 812 782 l 2
 812 967.610351562 780.462890625 983.708984375 649.340820312 983.708984375 c 0
 621.823242188 983.708984375 589.918945312 983 553 983 c 128
 530.72265625 983 508.168945312 983.314453125 486.16796875 983.314453125 c 0
 398.458007812 983.314453125 319.541015625 978.319335938 302 928.5 c 129
 302 340 l 2
 302 130.568359375 317.895507812 115.58203125 467.059570312 115.58203125 c 0
 491.97265625 115.58203125 520.604492188 116 553.5 116 c 128
107 738 m 2
 107 1006.44628906 174.109375 1123 437 1123 c 0
 648.333007812 1123 773 1085.33300781 811 1010 c 1
 832 1101 l 1
 1006 1101 l 1
 1006 -396 l 1
 812 -396 l 1
 812 93 l 1
 790 15 675 -24 467 -24 c 0
 209.5859375 -24 107 79.10546875 107 331 c 2
 107 738 l 2
EndSplineSet
EndChar

StartChar: r
Encoding: 114 114 86
Width: 676
GlyphClass: 2
Flags: HMW
LayerCount: 2
Fore
SplineSet
486 961 m 2
 382 961 330.333007812 909.333007812 331 806 c 2
 331 0 l 1
 136 0 l 1
 136 1091 l 5
 293 1091 l 5
 315 966 l 1
 361 1071.33300781 456 1124 600 1124 c 1
 600 961 l 1
 486 961 l 2
EndSplineSet
EndChar

StartChar: s
Encoding: 115 115 87
Width: 1047
GlyphClass: 2
Flags: HMW
LayerCount: 2
Fore
SplineSet
565 -24 m 0
 276.236088967 -24 106.019451531 -13.9296875 105 238 c 0
 105 268.666992188 107.666992188 298.333007812 113 327 c 1
 278 327 l 1
 278 274 l 2
 278 99 373.481445312 103 549 103 c 128
 711.529296875 103 770 127.892578125 770 292 c 128
 770 425.702148438 770.326171875 479.202148438 672 489 c 2
 391 517 l 2
 177.814453125 538.725585938 111.475585938 597.362304688 111.475585938 833.705078125 c 0
 111.475585938 1078.18554688 215.040260822 1123 509.5 1123 c 128
 749.5156406 1123 908 1106.96428057 908 913 c 128
 908 891.181818182 905.333007812 871.181640625 900 853 c 1
 759 833 l 1
 759 1002 667.927656845 997 515.5 997 c 128
 367.124164104 997 290 1021.89233657 290 843 c 0
 290 698.987304688 294.0078125 666.346679688 413 656 c 2
 689 632 l 2
 899.624023438 613.684570312 945.010742188 542.268554688 945.010742188 294.88671875 c 0
 945.010742188 50.685546875 838.184989216 -24 565 -24 c 0
EndSplineSet
EndChar

StartChar: t
Encoding: 116 116 88
Width: 693
GlyphClass: 2
Flags: HMW
LayerCount: 2
Fore
SplineSet
440 -24 m 0
 284 -24 206 35.6669921875 206 155 c 2
 206 983 l 1
 59 983 l 1
 59 1091 l 1
 206 1091 l 1
 206 1404 l 1
 402 1404 l 1
 402 1091 l 1
 593 1091 l 1
 593 983 l 1
 402 983 l 1
 402 120 l 1
 583 120 l 1
 583 -16 l 1
 532.333007812 -21.3330078125 484.666992188 -24 440 -24 c 0
EndSplineSet
EndChar

StartChar: u
Encoding: 117 117 89
Width: 1141
GlyphClass: 2
Flags: HMW
LayerCount: 2
Fore
SplineSet
565 116 m 128
 679.160176301 116 806 116 806 198 c 130
 806 1091 l 1
 1003 1091 l 1
 1003 0 l 1
 832 0 l 1
 806 95 l 1
 806 12.445818086 599.613719275 -24 462 -24 c 128
 200.444335938 -24 124 89.357421875 124 359 c 2
 124 1091 l 1
 319 1091 l 1
 319 357 l 2
 319 103.999969482 352.169805864 116 565 116 c 128
EndSplineSet
EndChar

StartChar: v
Encoding: 118 118 90
Width: 1032
GlyphClass: 2
Flags: HMW
LayerCount: 2
Fore
SplineSet
969 1091 m 5
 620 0 l 1
 410 0 l 1
 46 1091 l 5
 235 1091 l 5
 518 162 l 1
 769 1091 l 5
 969 1091 l 5
EndSplineSet
EndChar

StartChar: w
Encoding: 119 119 91
Width: 1575
GlyphClass: 2
Flags: HMW
LayerCount: 2
Fore
SplineSet
1117 219 m 1
 1310 1091 l 5
 1504 1091 l 5
 1231 0 l 1
 1025 0 l 1
 779 835 l 5
 547 0 l 1
 342 0 l 1
 55 1091 l 5
 249 1091 l 5
 440 219 l 1
 686 1091 l 5
 876 1091 l 5
 1117 219 l 1
EndSplineSet
EndChar

StartChar: x
Encoding: 120 120 92
Width: 1047
GlyphClass: 2
Flags: HMW
LayerCount: 2
Fore
SplineSet
524 404 m 1
 272 0 l 1
 72 0 l 1
 418.795898438 555.87890625 l 1
 77 1091 l 5
 277 1091 l 5
 523 694 l 1
 770 1091 l 5
 967 1091 l 5
 631.216796875 554.094726562 l 1
 974 0 l 1
 774 0 l 1
 524 404 l 1
EndSplineSet
EndChar

StartChar: y
Encoding: 121 121 93
Width: 1043
GlyphClass: 2
Flags: HMW
LayerCount: 2
Fore
SplineSet
283.5 -213 m 128
 429.422851562 -213 416.963867188 -153.249023438 453 4 c 1
 453 6 l 1
 358.541992188 263.61328125 253.123046875 532.97265625 155 791 c 1
 39 1091 l 1
 233 1091 l 1
 542 246 l 1
 785 1091 l 1
 982 1091 l 1
 551.021484375 -243.212890625 l 1
 500.58203125 -316.880859375 426.7421875 -350.501953125 349.543945312 -350.501953125 c 0
 271.390625 -350.501953125 193.614257812 -341.065429688 116 -323 c 1
 142 -192 l 1
 198.666992188 -206 245.833007812 -213 283.5 -213 c 128
EndSplineSet
EndChar

StartChar: z
Encoding: 122 122 94
Width: 897
GlyphClass: 2
Flags: HMWO
LayerCount: 2
Fore
SplineSet
781 1091 m 1
 781 959 l 1
 295.8359375 128.249023438 l 1
 778 127 l 1
 778 0 l 1
 92 0 l 1
 92 136 l 1
 590.643554688 961.41796875 l 1
 128 961 l 1
 128 1091 l 1
 781 1091 l 1
EndSplineSet
EndChar

StartChar: braceleft
Encoding: 123 123 95
Width: 595
GlyphClass: 2
Flags: HMW
LayerCount: 2
Fore
SplineSet
638 -172 m 1
 452.666666667 -172 328.666666667 -112 266 8 c 0
 201.759536234 130.303959861 198.271804291 253.131605373 186 416.5 c 128
 176.263416215 546.118271636 158.076804401 664 41 664 c 1
 41 858 l 1
 113 858 158.333333333 918 177 1038 c 0
 183 1074 190.333333333 1129.5 199 1204.5 c 128
 207.666666667 1279.5 222.666666667 1353.33333333 244 1426 c 128
 265.333333333 1498.66666667 306.666666667 1561.5 368 1614.5 c 128
 429.333333333 1667.5 519 1694 637 1694 c 1
 637 1530 l 1
 504.333333333 1530 424.666666667 1460 398 1320 c 0
 376.099593588 1200.19189434 378.04617938 1020.74523003 360 897 c 128
 350.666666667 833 323.666666667 786.666666667 279 758 c 1
 339 724 371 638.666666667 375 502 c 0
 381 292 402.833333333 154.5 440.5 89.5 c 128
 478.166666667 24.5 544 -8 638 -8 c 1
 638 -172 l 1
EndSplineSet
EndChar

StartChar: bar
Encoding: 124 124 96
Width: 474
GlyphClass: 2
Flags: HMW
LayerCount: 2
Fore
SplineSet
326 1716 m 1
 326 -98 l 1
 151 -98 l 1
 151 1716 l 1
 326 1716 l 1
EndSplineSet
EndChar

StartChar: braceright
Encoding: 125 125 97
Width: 595
GlyphClass: 2
Flags: HMW
LayerCount: 2
Fore
SplineSet
-33 1530 m 1
 -33 1694 l 1
 171 1694 301 1606 357 1430 c 0
 381.666666667 1352.66666667 398.666666667 1269.5 408 1180.5 c 128
 424.085664908 1027.11169534 438.273054905 858 563 858 c 1
 563 664 l 1
 483.666666667 664 437.333333333 604 424 484 c 0
 420 448 415 390.833333333 409 312.5 c 128
 403 234.166666667 391 160 373 90 c 128
 355 20 314.333333333 -41.1666666667 251 -93.5 c 128
 187.666666667 -145.833333333 92.6666666667 -172 -34 -172 c 1
 -34 -8 l 1
 99.3333333333 -8 179.333333333 62.6666666667 206 204 c 0
 227.670105904 322.548226418 225.860220932 504.204340542 244 626 c 128
 253.333333333 688.666666667 280.333333333 732.666666667 325 758 c 1
 265 796.666666667 233 884 229 1020 c 0
 223 1232.66666667 201.166666667 1370.83333333 163.5 1434.5 c 128
 125.833333333 1498.16666667 60.3333333333 1530 -33 1530 c 1
EndSplineSet
EndChar

StartChar: asciitilde
Encoding: 126 126 98
Width: 971
GlyphClass: 2
Flags: HMW
LayerCount: 2
Fore
SplineSet
638 839 m 0
 511.66097059 839 351.734909976 952 234 952 c 128
 173.367026806 952 143.235343204 930.211808884 113 903 c 128
 106.333333333 897 99.1666666667 894 91.5 894 c 128
 83.8333333333 894 80 901.333333333 80 916 c 128
 80 930.666666667 91.3333333333 953.666666667 114 985 c 0
 179.333333333 1075 253.666666667 1120 337 1120 c 0
 385 1120 445.5 1106.66666667 518.5 1080 c 128
 591.5 1053.33333333 645.5 1034 680.5 1022 c 128
 715.5 1010 743 1004 763 1004 c 128
 816.234724029 1004 846.135165046 1031.43491527 874 1055.5 c 128
 881.333333333 1061.83333333 888.833333333 1065 896.5 1065 c 128
 904.166666667 1065 908 1057.83333333 908 1043.5 c 128
 908 1029.16666667 897 1008 875 980 c 0
 799.666666667 886 720.666666667 839 638 839 c 0
EndSplineSet
EndChar

StartChar: exclamdown
Encoding: 161 161 99
Width: 477
GlyphClass: 2
Flags: HMW
LayerCount: 2
Fore
SplineSet
129 112 m 0
 129 264 142.166992188 443.5 168.5 650.5 c 128
 194.833007812 857.5 211.166992188 966 217.5 976 c 128
 223.833007812 986 232.666992188 991 244 991 c 128
 255.333007812 991 264 977.5 270 950.5 c 128
 276 923.5 290.166992188 821.166992188 312.5 643.5 c 128
 334.833007812 465.833007812 346 330.5 346 237.5 c 128
 346 144.5 344 84.5 340 57.5 c 128
 331.98828125 3.4228515625 322.118164062 -38 259 -38 c 0
 172.333007812 -38 129 12 129 112 c 0
239 1244 m 0
 153.842773438 1244 92 1313.11621094 92 1400 c 0
 92 1470.66699219 122 1518.66699219 182 1544 c 0
 200 1552 219 1556 239 1556 c 0
 325.184570312 1556 387 1488.61132812 387 1400 c 0
 387 1313.14453125 334.522460938 1244 239 1244 c 0
EndSplineSet
EndChar

StartChar: cent
Encoding: 162 162 100
Width: 1017
GlyphClass: 2
Flags: HMW
LayerCount: 2
Fore
SplineSet
501 1505 m 1
 574 1505 l 1
 574 -72 l 1
 501 -72 l 1
 501 1505 l 1
975 1028 m 0
 975 983.333333333 973.666666667 945.666666667 971 915 c 1
 971 911 l 1
 783 911 l 1
 783 942 l 2
 783 1024.66666667 779.5 1079.33333333 772.5 1106 c 128
 765.5 1132.66666667 748.166666667 1149.16666667 720.5 1155.5 c 128
 692.833333333 1161.83333333 633 1165 541 1165 c 128
 449 1165 387.333333333 1161.83333333 356 1155.5 c 128
 324.666666667 1149.16666667 305.166666667 1132.83333333 297.5 1106.5 c 128
 289.833333333 1080.16666667 286 1025.33333333 286 942 c 2
 286 481 l 2
 286 399 289.833333333 345.166666667 297.5 319.5 c 128
 305.166666667 293.833333333 324.666666667 277.833333333 356 271.5 c 128
 387.333333333 265.166666667 441.833333333 262 519.5 262 c 128
 597.166666667 262 651.833333333 263.166666667 683.5 265.5 c 128
 715.166666667 267.833333333 738.666666667 276 754 290 c 0
 773.333333333 308 783 371.666666667 783 481 c 2
 783 510 l 1
 971 510 l 1
 972.333333333 496.666666667 973 484.666666667 973 474 c 2
 973 441 l 2
 973 315 943.666666667 229.333333333 885 184 c 128
 826.333333333 138.666666667 708.333333333 116 531 116 c 128
 353.666666667 116 234.666666667 144 174 200 c 0
 118.666666667 251.333333333 91 350.333333333 91 497 c 2
 91 940 l 2
 91 1083.33333333 120.333333333 1181 179 1233 c 128
 237.666666667 1285 354.166666667 1311 528.5 1311 c 128
 702.833333333 1311 820.833333333 1289.66666667 882.5 1247 c 128
 944.166666667 1204.33333333 975 1131.33333333 975 1028 c 0
EndSplineSet
EndChar

StartChar: sterling
Encoding: 163 163 101
Width: 1390
GlyphClass: 2
Flags: HMW
LayerCount: 2
Fore
SplineSet
490 0 m 2
 378 0 318.333333333 34 311 102 c 1
 304.333333333 34 227 0 79 0 c 1
 79 222 l 1
 153.666666667 222 196.333333333 226.666666667 207 236 c 0
 220.333333333 248 227 285.333333333 227 348 c 2
 227 724 l 1
 81 724 l 1
 81 882 l 1
 227 882 l 1
 228 1117 l 1
 228 1357.49247464 264.456562703 1478.28951225 444 1525 c 128
 526 1546.33333333 638.5 1557 781.5 1557 c 128
 924.5 1557 1027.33333333 1551 1090 1539 c 0
 1226.66666667 1511 1295 1411.33333333 1295 1240 c 2
 1295 1046 l 1
 1111 1046 l 1
 1110 1179 l 1
 1108 1255 1102.83333333 1303.83333333 1094.5 1325.5 c 128
 1086.16666667 1347.16666667 1064 1360.33333333 1028 1365 c 0
 994.666666667 1369.66666667 922.333333333 1372 811 1372 c 0
 795 1372 795 1372 778 1372 c 0
 648 1372 562.333333333 1368.33333333 521 1361 c 128
 479.666666667 1353.66666667 453.333333333 1336.5 442 1309.5 c 128
 430.666666667 1282.5 425 1228 425 1146 c 2
 424 881 l 1
 1012 881 l 1
 1012 723 l 1
 425 723 l 1
 425 345 l 2
 425 239.395427486 425.88752262 197.726028167 507.5 183.5 c 128
 543.833333333 177.166666667 613.333333333 174 716 174 c 2
 851 174 l 2
 986.333333333 174 1065.33333333 181.166666667 1088 195.5 c 128
 1135.22247709 225.361272277 1132 267.002554036 1132 345 c 2
 1132 510 l 1
 1313 510 l 1
 1313 344 l 2
 1313 212.666666667 1289.33333333 122.5 1242 73.5 c 128
 1194.66666667 24.5 1097.66666667 0 951 0 c 2
 490 0 l 2
EndSplineSet
EndChar

StartChar: currency
Encoding: 164 164 102
Width: 1090
GlyphClass: 2
Flags: HMW
LayerCount: 2
Fore
SplineSet
128 764 m 0
 128 910.666992188 167 1026 245 1110 c 1
 107 1281 l 1
 170 1351 l 1
 320 1170 l 1
 379.333007812 1216 454.333007812 1239 545 1239 c 128
 635.666992188 1239 710.333007812 1217 769 1173 c 1
 921 1350 l 1
 985 1280 l 1
 847 1111 l 1
 927 1026.33300781 967 911 967 765 c 128
 967 619 927 503 847 417 c 1
 986 247 l 1
 922 178 l 1
 772 357 l 1
 712 311.666992188 637 289 547 289 c 0
 454.333007812 289 378.333007812 312 319 358 c 1
 169 178 l 1
 106 247 l 1
 245 417 l 1
 167 501 128 616.666992188 128 764 c 0
860 772 m 0
 860 1008.12597656 776.391601562 1138 547 1138 c 0
 337.666992188 1138 233 1016.33300781 233 773 c 0
 233 528.928710938 322.952148438 407 547 407 c 0
 755.666992188 407 860 528.666992188 860 772 c 0
EndSplineSet
EndChar

StartChar: yen
Encoding: 165 165 103
Width: 1078
GlyphClass: 2
Flags: HMW
LayerCount: 2
Fore
SplineSet
644 293 m 1
 644 0 l 1
 445 0 l 1
 445 293 l 1
 123 293 l 1
 123 394 l 1
 445 394 l 1
 445 510 l 1
 417 572 l 1
 123 572 l 1
 123 672 l 1
 373 672 l 1
 20 1499 l 1
 235 1499 l 1
 549 723 l 1
 869 1499 l 1
 1077 1499 l 1
 717 672 l 1
 956 672 l 1
 956 572 l 1
 672 572 l 1
 644 510 l 1
 644 394 l 1
 956 394 l 1
 956 293 l 1
 644 293 l 1
EndSplineSet
EndChar

StartChar: brokenbar
Encoding: 166 166 104
Width: 474
GlyphClass: 2
Flags: HMW
LayerCount: 2
Fore
SplineSet
331 563 m 1
 331 -249 l 1
 144 -249 l 1
 144 563 l 1
 331 563 l 1
331 1631 m 1
 331 819 l 1
 144 819 l 1
 144 1631 l 1
 331 1631 l 1
EndSplineSet
EndChar

StartChar: section
Encoding: 167 167 105
Width: 1017
GlyphClass: 2
Flags: HMW
LayerCount: 2
Fore
SplineSet
550 -43 m 128
 696.930391654 -43 723 -0.687105001089 723 165 c 128
 723 301.760521953 686.760633789 358.12375562 581 370.5 c 128
 516.627543725 378.032947011 466.031868558 386.612274896 403 396 c 0
 196.147519909 427.341284862 125 503.719808221 125 729 c 128
 125 833 157 910 221 960 c 1
 158.333333333 1016.66666667 127 1113 127 1249 c 128
 127 1385 157.5 1474.16666667 218.5 1516.5 c 128
 279.5 1558.83333333 377.833333333 1580 513.5 1580 c 128
 649.166666667 1580 748.166666667 1557.83333333 810.5 1513.5 c 128
 872.833333333 1469.16666667 904 1374.66666667 904 1230 c 1
 733 1230 l 1
 733 1328.66666667 720.5 1388.33333333 695.5 1409 c 128
 645.312125608 1450.48864283 601.359130356 1449 512 1449 c 0
 419.333333333 1449 360.666666667 1437.83333333 336 1415.5 c 128
 311.333333333 1393.16666667 299 1336 299 1244 c 128
 299 1152 309.166666667 1097.33333333 329.5 1080 c 128
 349.833333333 1062.66666667 374 1051 402 1045 c 128
 430 1039 493.833333333 1027.33333333 593.5 1010 c 128
 693.166666667 992.666666667 769 965.333333333 821 928 c 128
 873 890.666666667 899 814.833333333 899 700.5 c 128
 899 586.166666667 865 504.666666667 797 456 c 1
 863 399.333333333 896 301.5 896 162.5 c 128
 896 23.5 864.833333333 -67.1666666667 802.5 -109.5 c 128
 740.166666667 -151.833333333 640.333333333 -173 503 -173 c 128
 365.666666667 -173 265.833333333 -150.833333333 203.5 -106.5 c 128
 141.166666667 -62.1666666667 110 32.3333333333 110 177 c 1
 282 177 l 1
 282 75 295.5 14 322.5 -6 c 128
 384.100802756 -51.630224264 435.520622563 -43 550 -43 c 128
301 741.5 m 128
 301 635.123590038 311.23160503 583.947537107 383.5 557 c 128
 468.748981001 525.212244373 581.284353463 523.045877584 690 510 c 1
 711.333333333 527.333333333 722 574.5 722 651.5 c 128
 722 728.5 713.833333333 776.333333333 697.5 795 c 128
 664.01982118 833.263061509 629.393709587 839.851286675 570 852 c 128
 488.912732076 868.586032075 413.154135828 881.729227997 326 906 c 1
 309.333333333 844 301 789.166666667 301 741.5 c 128
EndSplineSet
EndChar

StartChar: dieresis
Encoding: 168 168 106
Width: 1043
GlyphClass: 2
Flags: HMW
LayerCount: 2
Fore
SplineSet
637.557617188 244 m 4
 637.557617188 334.744140625 698.327148438 370.87890625 768.708007812 370.87890625 c 4
 838.322265625 370.87890625 897.557617188 335.744140625 897.557617188 244 c 4
 897.557617188 152.383789062 838.515625 117.493164062 769 117.493164062 c 4
 698.522460938 117.493164062 637.557617188 153.633789062 637.557617188 244 c 4
146 244 m 0
 146 334.744140625 206.76953125 370.87890625 277.150390625 370.87890625 c 0
 346.764648438 370.87890625 406 335.744140625 406 244 c 0
 406 152.383789062 346.958007812 117.493164062 277.442382812 117.493164062 c 0
 206.96484375 117.493164062 146 153.633789062 146 244 c 0
EndSplineSet
EndChar

StartChar: copyright
Encoding: 169 169 107
Width: 1648
GlyphClass: 2
Flags: HMW
LayerCount: 2
Fore
SplineSet
-29 843 m 4
 -29 1304.79047619 348 1679 813 1679 c 4
 1278 1679 1655 1304.79047619 1655 843 c 4
 1655 381.20952381 1278 7 813 7 c 4
 348 7 -29 381.20952381 -29 843 c 4
74 841 m 4
 74 432.209677419 407 101 818 101 c 4
 1229 101 1562 432.209677419 1562 841 c 4
 1562 1249.79032258 1229 1581 818 1581 c 4
 407 1581 74 1249.79032258 74 841 c 4
825.5 422 m 128
 1089.90632096 422 1076 453.381683298 1076 725 c 1
 1215 725 l 1
 1215 360.055766936 1166.30427213 307 825.5 307 c 128
 467.02529909 307 415 400.826464285 415 769 c 2
 415 946 l 2
 415 1314.70260052 468.062397393 1408 826.5 1408 c 128
 1167.35653165 1408 1215 1333.03159641 1215 990 c 1
 1076 990 l 1
 1076 1289.82967356 1087.43705363 1293 825.5 1293 c 128
 544.453361463 1293 560 1236.89565882 560 946 c 2
 560 769 l 2
 560 440.483676839 545.776212827 422 825.5 422 c 128
EndSplineSet
EndChar

StartChar: guillemotleft
Encoding: 171 171 109
Width: 1191
GlyphClass: 2
Flags: HMW
LayerCount: 2
Fore
SplineSet
558 1254 m 128
 595.616011711 1254 622 1223.58507734 622 1187.5 c 128
 622 1170.5 614 1146.66666667 598 1116 c 1
 258 716 l 1
 598 316 l 1
 614 286.666666667 622 263 622 245 c 0
 622 200.333333333 599.333333333 178 554 178 c 0
 531.333333333 178 511 186 493 202 c 2
 103 574 l 2
 63.6666666667 612 44 659.333333333 44 716 c 256
 44 772.666666667 63.6666666667 820 103 858 c 2
 493 1229 l 1
 516.333333333 1245.66666667 538 1254 558 1254 c 128
1063 1254 m 128
 1099.30111878 1254 1125 1223.25639041 1125 1188.5 c 128
 1125 1172.16666667 1117 1148 1101 1116 c 1
 768 716 l 1
 1101 316 l 1
 1117 285.333333333 1125 261.333333333 1125 244 c 0
 1125 200 1103 178 1059 178 c 0
 1037.66666667 178 1018 186 1000 202 c 2
 608 574 l 2
 566 613.333333333 545 660.666666667 545 716 c 0
 545 772.666666667 566 820 608 858 c 1
 1000 1229 l 1
 1022.66666667 1245.66666667 1043.66666667 1254 1063 1254 c 128
EndSplineSet
EndChar

StartChar: logicalnot
Encoding: 172 172 110
Width: 1175
GlyphClass: 2
Flags: HMW
LayerCount: 2
Fore
SplineSet
1041 294 m 1
 900 294 l 1
 900 773 l 1
 71 773 l 1
 71 962 l 1
 1041 962 l 1
 1041 294 l 1
EndSplineSet
EndChar

StartChar: uni00AD
Encoding: 173 173 111
Width: 1012
GlyphClass: 2
Flags: HMW
LayerCount: 2
Fore
SplineSet
900 549 m 1
 114 549 l 1
 114 728 l 1
 900 728 l 1
 900 549 l 1
EndSplineSet
EndChar

StartChar: registered
Encoding: 174 174 112
Width: 1644
GlyphClass: 2
Flags: HMW
LayerCount: 2
Fore
SplineSet
-29 843 m 0
 -29 1304.79047619 348 1679 813 1679 c 0
 1278 1679 1655 1304.79047619 1655 843 c 0
 1655 381.20952381 1278 7 813 7 c 0
 348 7 -29 381.20952381 -29 843 c 0
74 841 m 0
 74 432.209677419 407 101 818 101 c 0
 1229 101 1562 432.209677419 1562 841 c 0
 1562 1249.79032258 1229 1581 818 1581 c 0
 407 1581 74 1249.79032258 74 841 c 0
806 1387 m 2
 1070.65681842 1387 1175 1348.75957297 1175 1101 c 0
 1175 939 1116 853.666666667 998 845 c 1
 1099.17221809 840.024317143 1167 777.429926619 1167 666 c 2
 1167 315 l 1
 1026 315 l 1
 1026 621 l 2
 1026 772.493815164 1015.26322165 783 873 783 c 2
 609 783 l 1
 622 314 l 1
 479 314 l 1
 466 1387 l 1
 806 1387 l 2
1031 1087 m 128
 1031 1264.9124022 987.793721129 1273 804 1273 c 2
 609 1273 l 1
 609 892 l 1
 806 892 l 2
 985.63961958 892 1031 911.236245014 1031 1087 c 128
EndSplineSet
EndChar

StartChar: macron
Encoding: 175 175 113
Width: 802
GlyphClass: 2
Flags: HMW
LayerCount: 2
Fore
SplineSet
705 838 m 1
 705 711 l 1
 108 711 l 1
 108 838 l 1
 705 838 l 1
EndSplineSet
EndChar

StartChar: degree
Encoding: 176 176 114
Width: 790
GlyphClass: 2
Flags: HMW
LayerCount: 2
Fore
SplineSet
92 1322 m 0
 92 1406.66666667 123.5 1473.66666667 186.5 1523 c 128
 249.5 1572.33333333 320.666666667 1597 400 1597 c 0
 478.666666667 1597 549.5 1572.33333333 612.5 1523 c 128
 675.5 1473.66666667 707 1406.33333333 707 1321 c 256
 707 1235.66666667 675.833333333 1168.5 613.5 1119.5 c 128
 551.166666667 1070.5 480 1046 400 1046 c 0
 320.666666667 1046 249.5 1070.66666667 186.5 1120 c 128
 123.5 1169.33333333 92 1236.66666667 92 1322 c 0
399.5 1155 m 128
 483.816044467 1155 532 1234.76394954 532 1321 c 256
 532 1407.02637837 482.891028962 1486 399 1486 c 128
 315.574911902 1486 270 1406.1206612 270 1321 c 0
 270 1234.78588492 315.161129112 1155 399.5 1155 c 128
EndSplineSet
EndChar

StartChar: plusminus
Encoding: 177 177 115
Width: 925
GlyphClass: 2
Flags: HMW
LayerCount: 2
Fore
SplineSet
549 1117 m 1
 549 754 l 1
 858 754 l 1
 858 585 l 1
 549 585 l 1
 549 223 l 1
 383 223 l 1
 383 585 l 1
 74 585 l 1
 74 754 l 1
 383 754 l 1
 383 1117 l 1
 549 1117 l 1
859 -24 m 1
 73 -24 l 1
 73 139 l 1
 859 139 l 1
 859 -24 l 1
EndSplineSet
EndChar

StartChar: acute
Encoding: 180 180 118
Width: 629
GlyphClass: 2
Flags: HMW
LayerCount: 2
Fore
SplineSet
493 1640 m 128
 541.116166808 1640 574 1582.89253289 574 1528 c 128
 574 1493.33333333 552 1463.33333333 508 1438 c 1
 494.666666667 1426.66666667 427.666666667 1399.5 307 1356.5 c 128
 186.333333333 1313.5 120.5 1292 109.5 1292 c 128
 98.5 1292 93 1297.33333333 93 1308 c 128
 93 1318.66666667 95.8333333333 1326.66666667 101.5 1332 c 128
 107.166666667 1337.33333333 115.666666667 1345.66666667 127 1357 c 0
 295 1530.33333333 402 1623.33333333 448 1636 c 0
 459.333333333 1638.66666667 474.333333333 1640 493 1640 c 128
EndSplineSet
EndChar

StartChar: paragraph
Encoding: 182 182 120
Width: 1018
GlyphClass: 2
Flags: HMW
LayerCount: 2
Fore
SplineSet
374 845 m 0
 162.618969867 845 36 963.049983018 36 1190 c 0
 36 1450.92380083 202.357933729 1521 484 1521 c 2
 871 1521 l 1
 871 0 l 1
 718 0 l 1
 718 844 l 1
 547 844 l 1
 547 0 l 1
 393 0 l 1
 393 845 l 1
 383 845 383 845 374 845 c 0
EndSplineSet
EndChar

StartChar: periodcentered
Encoding: 183 183 121
Width: 486
GlyphClass: 2
Flags: HMW
LayerCount: 2
Fore
SplineSet
245 528 m 0
 162.858287353 528 105 597.6106335 105 682 c 0
 105 766.722494855 154.074871721 836 245 836 c 0
 329.020897009 836 385 768.639862903 385 682 c 0
 385 598.357782005 335.925128279 528 245 528 c 0
EndSplineSet
EndChar

StartChar: cedilla
Encoding: 184 184 122
Width: 672
GlyphClass: 2
Flags: HMW
LayerCount: 2
Fore
SplineSet
80 -426 m 0
 80 -400.97760471 99.7435946451 -373 123 -373 c 128
 133 -373 154.166666667 -382.333333333 186.5 -401 c 128
 218.833333333 -419.666666667 256.833333333 -429 300.5 -429 c 128
 344.166666667 -429 366 -411.333333333 366 -376 c 0
 366 -318 320 -289 228 -289 c 1
 240.469971311 -236.852847247 253.092611753 -189.928497525 265 -144 c 2
 303 0 l 1
 412 0 l 1
 363 -168 l 1
 398.001923171 -173.833653862 416.249095417 -173.816639579 460 -184.5 c 128
 533.638605539 -202.481519957 582 -261.029722156 582 -364.5 c 128
 582 -489.565401793 475.852860728 -557 348.5 -557 c 128
 255.110178097 -557 80 -506.6317975 80 -426 c 0
EndSplineSet
EndChar

StartChar: guillemotright
Encoding: 187 187 125
Width: 1197
GlyphClass: 2
Flags: HMW
LayerCount: 2
Fore
SplineSet
81 1185 m 0
 81 1231 101.666992188 1254 143 1254 c 0
 163 1254 184 1245.66699219 206 1229 c 1
 598 858 l 2
 639.333007812 819.333007812 660 772 660 716 c 0
 660 661.333007812 639.333007812 614 598 574 c 2
 206 202 l 2
 189.333007812 186 169.666992188 178 147 178 c 0
 103 178 81 201 81 247 c 0
 81 266.333007812 88.6669921875 289.333007812 104 316 c 1
 436 716 l 1
 104 1116 l 1
 88.6669921875 1144 81 1167 81 1185 c 0
652.5 178 m 128
 609.590820312 178 583 205.609375 583 246.5 c 128
 583 265.5 591.333007812 288.666992188 608 316 c 1
 947 716 l 1
 608 1116 l 1
 591.333007812 1145.33300781 583 1168.83300781 583 1186.5 c 128
 583 1223.37402344 609.919921875 1254 648 1254 c 128
 668 1254 689.666992188 1245.66699219 713 1229 c 1
 1102 858 l 2
 1141.33300781 820 1161 772.666992188 1161 716 c 128
 1161 659.333007812 1141.33300781 612 1102 574 c 2
 713 202 l 2
 695.666992188 186 675.5 178 652.5 178 c 128
EndSplineSet
EndChar

StartChar: onequarter
Encoding: 188 188 126
Width: 704
GlyphClass: 2
Flags: HMW
LayerCount: 2
Fore
SplineSet
363 152 m 1
 142 152 l 1
 104 250 l 1
 305 616 l 1
 477 616 l 1
 477 250 l 1
 549 250 l 1
 549 152 l 1
 477 152 l 1
 477 0 l 1
 363 0 l 1
 363 152 l 1
363 250 m 1
 363 544 l 1
 313.225233473 443.105202985 264.77017568 350.204294104 214 250 c 1
 363 250 l 1
679 711 m 1
 44 711 l 1
 44 826 l 1
 679 826 l 1
 679 711 l 1
248 1431 m 1
 276.666666667 1431 297 1440 309 1458 c 128
 321 1476 327 1489.66666667 327 1499 c 1
 435 1499 l 1
 435 918 l 1
 314 918 l 1
 314 1368 l 1
 248 1368 l 1
 248 1431 l 1
EndSplineSet
EndChar

StartChar: onehalf
Encoding: 189 189 127
Width: 704
GlyphClass: 2
Flags: HMW
LayerCount: 2
Fore
SplineSet
446 451.5 m 128
 446 515.37898697 433.546671467 534 371.5 534 c 128
 341.833333333 534 322.333333333 533.333333333 313 532 c 0
 287.666666667 528 275 495.333333333 275 434 c 1
 156 434 l 1
 156 556.666666667 195.333333333 624 274 636 c 0
 298.666666667 640 335.333333333 642 384 642 c 128
 432.666666667 642 474.5 631.333333333 509.5 610 c 128
 544.5 588.666666667 562 540.5 562 465.5 c 128
 562 390.5 534.333333333 332 479 290 c 1
 451.936323381 270.829895728 329.568881397 191.643498078 304 170.5 c 128
 286.666666667 156.166666667 275.666666667 138.333333333 271 117 c 1
 552 117 l 1
 552 0 l 1
 153 0 l 1
 153 99 l 2
 153 168.333333333 196 231.333333333 282 288 c 0
 326.668762681 317.387343869 383.762708921 347.23118385 421 380 c 128
 437.666666667 394.666666667 446 418.5 446 451.5 c 128
675 711 m 1
 35 711 l 1
 35 826 l 1
 675 826 l 1
 675 711 l 1
238 1431 m 1
 266.666666667 1431 287.166666667 1440 299.5 1458 c 128
 311.833333333 1476 318 1489.66666667 318 1499 c 1
 431 1499 l 1
 431 918 l 1
 306 918 l 1
 306 1368 l 1
 238 1368 l 1
 238 1431 l 1
EndSplineSet
EndChar

StartChar: threequarters
Encoding: 190 190 128
Width: 743
GlyphClass: 2
Flags: HMW
LayerCount: 2
Fore
SplineSet
468 1069 m 128
 468 1156.53051179 437.812729595 1155 343 1155 c 1
 343 1248 l 1
 375 1248 l 2
 448.024067016 1248 468 1252.24224006 468 1324 c 128
 468 1395.09312371 449.350004914 1403 377.5 1403 c 128
 301.544956224 1403 293 1397.42967316 293 1319 c 1
 191 1319 l 1
 191 1426.33333333 226.666666667 1484.66666667 298 1494 c 0
 320 1497.33333333 355.833333333 1499 405.5 1499 c 128
 515.635264939 1499 565 1456.58804222 565 1338.5 c 128
 565 1274.83333333 556.333333333 1236.33333333 539 1223 c 128
 521.666666667 1209.66666667 504 1201.66666667 486 1199 c 1
 561.906729798 1185.7988296 565 1155.92379341 565 1049.5 c 128
 565 917.532384259 512.797861574 890 377 890 c 128
 232.916683363 890 191 913.845908507 191 1060 c 1
 293 1060 l 1
 293 988.586818557 304.488925926 985 377 985 c 128
 453.372946325 985 468 990.258878205 468 1069 c 128
380 152 m 1
 159 152 l 1
 121 250 l 1
 321 616 l 1
 493 616 l 1
 493 250 l 1
 565 250 l 1
 565 152 l 1
 493 152 l 1
 493 0 l 1
 380 0 l 1
 380 152 l 1
380 250 m 1
 380 544 l 1
 330.246175741 443.147653529 280.748714627 350.161936764 230 250 c 1
 380 250 l 1
695 701 m 1
 60 701 l 1
 60 816 l 1
 695 816 l 1
 695 701 l 1
EndSplineSet
EndChar

StartChar: questiondown
Encoding: 191 191 129
Width: 654
GlyphClass: 2
Flags: HMW
LayerCount: 2
Fore
SplineSet
397 -24 m 0
 156.333333333 -24 36 95.6666666667 36 335 c 0
 36 451 87.3333333333 568.666666667 190 688 c 0
 257.333333333 766 302.333333333 828.833333333 325 876.5 c 128
 347.666666667 924.166666667 361.666666667 972 367 1020 c 1
 381.666666667 1025.33333333 396.5 1028 411.5 1028 c 128
 426.5 1028 439 1023.66666667 449 1015 c 1
 449 877 419.333333333 760.666666667 360 666 c 128
 300.666666667 571.333333333 264 503.666666667 250 463 c 128
 236 422.333333333 229 383.333333333 229 346 c 0
 229 222 290.333333333 160 413 160 c 0
 454.333333333 160 528.666666667 174 636 202 c 1
 659 37 l 1
 553 -3.66666666667 465.666666667 -24 397 -24 c 0
415 1546 m 0
 497.141712647 1546 555 1476.3893665 555 1392 c 0
 555 1322 527 1274.66666667 471 1250 c 0
 454.333333333 1242 436 1238 416 1238 c 0
 336.102703865 1238 275 1297.37598461 275 1392 c 0
 275 1475.642218 324.074871721 1546 415 1546 c 0
EndSplineSet
EndChar

StartChar: AE
Encoding: 198 198 136
Width: 1901
GlyphClass: 2
Flags: HMW
LayerCount: 2
Fore
SplineSet
1146 703 m 1
 1146 160 l 1
 1809 160 l 1
 1809 0 l 1
 947 0 l 1
 947 389 l 1
 396 389 l 1
 173 0 l 1
 -9 0 l 1
 864 1499 l 1
 1793 1499 l 1
 1793 1339 l 1
 1146 1339 l 1
 1146 863 l 1
 1713 863 l 1
 1713 703 l 1
 1146 703 l 1
947 521 m 1
 947 1373 l 1
 473 521 l 1
 947 521 l 1
EndSplineSet
EndChar

StartChar: Eth
Encoding: 208 208 146
Width: 1412
GlyphClass: 2
Flags: HMW
LayerCount: 2
Fore
SplineSet
188 0 m 1
 188 696 l 1
 63 696 l 1
 63 822 l 1
 188 822 l 1
 188 1498 l 1
 710 1499 l 2
 878 1499 989 1491.33333333 1043 1476 c 0
 1137 1448.66666667 1200.5 1393.5 1233.5 1310.5 c 128
 1266.5 1227.5 1283 1091.66666667 1283 903 c 2
 1283 594 l 2
 1283 407.333333333 1266.5 273 1233.5 191 c 128
 1200.5 109 1146 56.6666666667 1070 34 c 128
 994 11.3333333333 874 0 710 0 c 2
 188 0 l 1
389 822 m 1
 621 822 l 1
 621 696 l 1
 389 696 l 1
 389 163 l 1
 710 162 l 2
 847.333333333 162 932 166.833333333 964 176.5 c 128
 1030.44775605 196.572759641 1052.23115945 225.72614748 1068 298 c 128
 1076 334.666666667 1080.66666667 433.333333333 1082 594 c 1
 1082 903 l 1
 1080.66666667 1063.66666667 1076.66666667 1161.66666667 1070 1197 c 128
 1056.72764594 1267.34347654 1037.10596307 1298.70571558 977.5 1322 c 128
 948.5 1333.33333333 876 1339 760 1339 c 2
 389 1338 l 1
 389 822 l 1
EndSplineSet
EndChar

StartChar: multiply
Encoding: 215 215 153
Width: 825
GlyphClass: 2
Flags: HMW
LayerCount: 2
Fore
SplineSet
518 670 m 1
 741 420 l 1
 623 288 l 1
 396 538 l 1
 170 288 l 1
 51 420 l 1
 275 670 l 1
 51 920 l 1
 170 1052 l 1
 396 802 l 1
 623 1052 l 1
 741 920 l 1
 518 670 l 1
EndSplineSet
EndChar

StartChar: Oslash
Encoding: 216 216 154
Width: 1396
GlyphClass: 2
Flags: HMW
LayerCount: 2
Fore
SplineSet
1042 1759 m 1
 451 -300 l 1
 318 -300 l 1
 909 1759 l 1
 1042 1759 l 1
EndSplineSet
Refer: 51 79 N 1 0 0 1 0 0 3
EndChar

StartChar: Thorn
Encoding: 222 222 160
Width: 1249
GlyphClass: 2
Flags: HMW
LayerCount: 2
Fore
SplineSet
680 1299 m 2
 842 1299 955.666666667 1275 1021 1227 c 0
 1105 1165 1147 1038.33333333 1147 847 c 128
 1147 655.666666667 1103 529.333333333 1015 468 c 0
 961.666666667 430.666666667 902.166666667 409.666666667 836.5 405 c 128
 770.833333333 400.333333333 714.666666667 398 668 398 c 2
 349 398 l 1
 349 0 l 1
 151 0 l 1
 151 1498 l 1
 349 1498 l 1
 349 1299 l 1
 680 1299 l 2
662 559 m 2
 788.666666667 559 865.5 572.333333333 892.5 599 c 128
 951.363925381 657.137210253 951 724.785075431 951 847 c 128
 951 955.470341563 948.903635048 1047.70615963 899 1096 c 0
 867.666666667 1126.66666667 790.666666667 1142 668 1142 c 2
 349 1142 l 1
 349 559 l 1
 662 559 l 2
EndSplineSet
EndChar

StartChar: germandbls
Encoding: 223 223 161
Width: 1209
GlyphClass: 2
Flags: HMW
LayerCount: 2
Fore
SplineSet
1031 1147 m 0
 1031 944.333333333 982 838 884 828 c 1
 944.666666667 825.333333333 996.666666667 791.166666667 1040 725.5 c 128
 1083.33333333 659.833333333 1105 548 1105 390 c 0
 1105 162.666666667 1009 36.6666666667 817 12 c 0
 752.333333333 4 679 0 597 0 c 2
 450 0 l 1
 450 157 l 1
 596 157 l 2
 710 157 785.333333333 160.5 822 167.5 c 128
 858.666666667 174.5 882.666666667 194.666666667 894 228 c 0
 904.666666667 259.333333333 910 321.666666667 910 415 c 0
 910 426 910 426 910 438 c 0
 909.333333333 544.666666667 906 611 900 637 c 0
 888 685 862.833333333 714.333333333 824.5 725 c 128
 786.166666667 735.666666667 707.666666667 741 589 741 c 2
 485 741 l 1
 485 887 l 1
 571 887 l 2
 670.333333333 887 735.833333333 890.166666667 767.5 896.5 c 128
 799.166666667 902.833333333 819 919.166666667 827 945.5 c 128
 835 971.833333333 839 1027.33333333 839 1112 c 128
 839 1196.66666667 835.5 1252.66666667 828.5 1280 c 128
 821.5 1307.33333333 803.666666667 1324.5 775 1331.5 c 128
 746.333333333 1338.5 685.166666667 1342 591.5 1342 c 128
 497.833333333 1342 436 1338 406 1330 c 128
 376 1322 357.166666667 1303.5 349.5 1274.5 c 128
 341.833333333 1245.5 338 1184 338 1090 c 2
 339 -150 l 1
 142 -150 l 1
 143 1102 l 2
 143 1259.33333333 177.333333333 1364.83333333 246 1418.5 c 128
 314.666666667 1472.16666667 429 1499 589 1499 c 128
 749 1499 862.666666667 1474.33333333 930 1425 c 128
 997.333333333 1375.66666667 1031 1283 1031 1147 c 0
EndSplineSet
EndChar

StartChar: eth
Encoding: 240 240 178
Width: 1250
GlyphClass: 2
Flags: HMW
LayerCount: 2
Fore
SplineSet
325 1340 m 17
 390.515357429 1343.18361072 507.932374879 1361.62636718 621.151897112 1361.62636718 c 0
 770.323373977 1361.62636718 912.208347759 1329.61127368 918.5 1188.5 c 128
 920.833007812 1136.16699219 922 1085.33300781 922 1036 c 2
 922 816 l 1
 900 916 761.666992188 966 507 966 c 0
 178.080486267 966 95 812.773258502 95 466 c 0
 95 69.3203485253 199.151332284 -24 602 -24 c 0
 1000.28892552 -24 1120 63.002213222 1120 457 c 2
 1120 1031 l 2
 1120 1413.35573272 993.66096647 1523 638 1523 c 128
 484 1523 438.530273438 1507.13964844 311 1497 c 25
 325 1340 l 17
602 803 m 128
 609.775751039 803 617.363145107 803.002651598 624.766728977 803.002651598 c 0
 905.951773106 803.002651598 922 799.177856451 922 501 c 128
 922.000181798 491.213366445 l 0
 922.000181798 182.447628429 920.342692348 133 600.5 133 c 128
 290.218157048 133 288 154.592145979 288 468 c 128
 288 782.06436671 289.941143388 803 602 803 c 128
1099.83984375 1627.24511719 m 1
 677.697265625 1205.10253906 l 1
 767.5 1115.29980469 l 1
 1189.64257812 1537.44238281 l 1
 1099.83984375 1627.24511719 l 1
EndSplineSet
EndChar

StartChar: oslash
Encoding: 248 248 186
Width: 1143
GlyphClass: 2
Flags: HMW
LayerCount: 2
Fore
SplineSet
760 1299 m 1
 439 -200 l 1
 346 -200 l 1
 667 1299 l 1
 760 1299 l 1
EndSplineSet
Refer: 83 111 N 1 0 0 1 0.000437129 0 2
EndChar

StartChar: thorn
Encoding: 254 254 192
Width: 1180
GlyphClass: 2
Flags: HMW
LayerCount: 2
Fore
SplineSet
703 1180 m 0
 959.443787641 1180 1058 1065.87765771 1058 808 c 2
 1058 387 l 2
 1058 236.333333333 1034.5 130.166666667 987.5 68.5 c 128
 940.5 6.83333333333 853.666666667 -24 727 -24 c 0
 511 -24 383.666666667 19 345 105 c 1
 345 -402 l 1
 151 -402 l 1
 151 1594 l 1
 344 1594 l 1
 344 1053 l 1
 369.333333333 1137.66666667 489 1180 703 1180 c 0
592 1018 m 128
 512.666666667 1018 455.833333333 1014.66666667 421.5 1008 c 128
 387.166666667 1001.33333333 365.833333333 985 357.5 959 c 128
 349.166666667 933 345 879.666666667 345 799 c 2
 345 342 l 2
 345 244.666666667 353.166666667 188.166666667 369.5 172.5 c 128
 385.833333333 156.833333333 409.5 147.333333333 440.5 144 c 128
 471.5 140.666666667 527.666666667 139 609 139 c 128
 690.333333333 139 748.333333333 142 783 148 c 128
 817.666666667 154 839.5 169 848.5 193 c 128
 857.5 217 862 266.666666667 862 342 c 2
 862 799 l 2
 862 907 853.166666667 969.166666667 835.5 985.5 c 128
 817.833333333 1001.83333333 792.666666667 1011.33333333 760 1014 c 128
 727.333333333 1016.66666667 671.333333333 1018 592 1018 c 128
EndSplineSet
EndChar

StartChar: Hbar
Encoding: 294 294 222
Width: 1373
GlyphClass: 2
Flags: HMW
LayerCount: 2
Fore
SplineSet
1108 1190 m 5
 1108 1063 l 5
 251 1063 l 1
 251 1190 l 1
 1108 1190 l 5
EndSplineSet
Refer: 44 72 N 1 0 0 1 0 0 3
EndChar

StartChar: dotlessi
Encoding: 305 305 233
Width: 475
GlyphClass: 2
Flags: HMW
LayerCount: 2
Fore
SplineSet
333 1147 m 1
 333 0 l 1
 137 0 l 1
 137 1147 l 1
 333 1147 l 1
EndSplineSet
EndChar

StartChar: Lslash
Encoding: 321 321 249
Width: 1004
GlyphClass: 2
Flags: HMW
LayerCount: 2
Fore
SplineSet
197 0 m 1
 197 632 l 1
 64 568 l 1
 64 754 l 1
 197 818 l 1
 197 1499 l 1
 399 1499 l 1
 399 915 l 1
 698 1054 l 1
 698 868 l 1
 399 729 l 1
 399 164 l 1
 949 164 l 1
 949 0 l 1
 197 0 l 1
EndSplineSet
EndChar

StartChar: lslash
Encoding: 322 322 250
Width: 666
GlyphClass: 2
Flags: HMW
LayerCount: 2
Fore
SplineSet
410 0 m 1
 216 0 l 1
 216 660 l 1
 54 568 l 1
 54 754 l 1
 216 846 l 1
 216 1552 l 1
 410 1552 l 1
 410 956 l 1
 582 1054 l 1
 582 868 l 1
 410 770 l 1
 410 0 l 1
EndSplineSet
EndChar

StartChar: OE
Encoding: 338 338 263
Width: 2021
GlyphClass: 2
Flags: HMW
LayerCount: 2
Fore
SplineSet
1913 1499 m 1
 1913 1339 l 1
 1266 1339 l 1
 1266 863 l 1
 1832 863 l 1
 1832 703 l 1
 1266 703 l 1
 1266 160 l 1
 1929 160 l 1
 1929 0 l 1
 694 0 l 2
 517.333333333 0 394 9.16666666667 324 27.5 c 128
 254 45.8333333333 202.666666667 95.5 170 176.5 c 128
 137.333333333 257.5 121 396.666666667 121 594 c 2
 121 903 l 2
 121 1101 137.333333333 1240.66666667 170 1322 c 128
 202.666666667 1403.33333333 254.666666667 1453.33333333 326 1472 c 128
 397.333333333 1490.66666667 493.333333333 1500 614 1500 c 2
 897 1500 l 1
 1260 1499 l 2
 1587 1499 1587 1499 1913 1499 c 1
1066 160 m 1
 1066 1341 l 1
 694 1341 l 2
 556 1341 470.666666667 1336.33333333 438 1327 c 128
 369.100281221 1307.31436606 346.813926636 1276.86929089 330 1202.5 c 128
 321.333333333 1164.16666667 317 1064.33333333 317 903 c 2
 317 594 l 2
 317 445.333333333 320.833333333 344 328.5 290 c 128
 336.166666667 236 355.166666667 200.666666667 385.5 184 c 128
 415.833333333 167.333333333 478.333333333 159 573 159 c 2
 883 159 l 1
 1027 160 l 2
 1047 160 1047 160 1066 160 c 1
EndSplineSet
EndChar

StartChar: florin
Encoding: 402 402 298
Width: 663
GlyphClass: 2
Flags: HMW
LayerCount: 2
Fore
SplineSet
410 1579 m 128
 456.666666667 1579 515 1573 585 1561 c 1
 585 1412 l 1
 386 1412 l 1
 386 855 l 1
 581 855 l 1
 581 736 l 1
 386 736 l 1
 386 -50 l 2
 386 -84 385 -116.666666667 383 -148 c 0
 374.333333333 -257.333333333 300.333333333 -312 161 -312 c 0
 117.666666667 -312 62.3333333333 -306 -5 -294 c 1
 -5 -145 l 1
 192 -145 l 1
 192 736 l 1
 29 736 l 1
 29 855 l 1
 192 855 l 1
 190 1271 l 2
 190 1375 199.5 1444.33333333 218.5 1479 c 128
 254.625947146 1544.91400883 311.30847439 1579 410 1579 c 128
EndSplineSet
EndChar

StartChar: uni0237
Encoding: 567 567 301
Width: 461
GlyphClass: 2
Flags: HMW
LayerCount: 2
Fore
SplineSet
317 -49 m 2
 317 -201.500394748 260.845809601 -311 123 -311 c 128
 64.3333333333 -311 10 -306.333333333 -40 -297 c 1
 -43 -156 l 1
 124 -156 l 1
 124 1147 l 1
 317 1147 l 1
 317 -49 l 2
EndSplineSet
EndChar

StartChar: circumflex
Encoding: 710 710 302
Width: 748
GlyphClass: 2
Flags: HMW
LayerCount: 2
Fore
SplineSet
659 1440 m 0
 659 1414 646.666666667 1401 622 1401 c 0
 611.333333333 1401 600 1406 588 1416 c 1
 381 1627 l 1
 174 1416 l 1
 162 1406 151 1401 141 1401 c 0
 115.666666667 1401 103 1414.33333333 103 1441 c 0
 103 1454.33333333 107.333333333 1467.66666667 116 1481 c 2
 287 1754 l 2
 305 1783.33333333 336.333333333 1798 381 1798 c 0
 425 1798 456.333333333 1783.33333333 475 1754 c 2
 645 1481 l 2
 654.333333333 1466.33333333 659 1452.66666667 659 1440 c 0
EndSplineSet
EndChar

StartChar: caron
Encoding: 711 711 303
Width: 652
GlyphClass: 2
Flags: HMW
LayerCount: 2
Fore
SplineSet
55 1626 m 0
 55 1652.66666667 67.3333333333 1666 92 1666 c 0
 102 1666 113 1661 125 1651 c 1
 332 1440 l 1
 539 1651 l 1
 551.666666667 1661 563.333333333 1666 574 1666 c 0
 598 1666 610 1652.66666667 610 1626 c 0
 610 1614.66666667 605.666666667 1601.33333333 597 1586 c 2
 426 1313 l 2
 408.666666667 1283.66666667 377.666666667 1269 333 1269 c 0
 287.666666667 1269 256 1283.66666667 238 1313 c 2
 67 1586 l 2
 59 1598.66666667 55 1612 55 1626 c 0
EndSplineSet
EndChar

StartChar: breve
Encoding: 728 728 304
Width: 696
GlyphClass: 2
Flags: HMW
LayerCount: 2
Fore
SplineSet
357 1574 m 0
 482.783838595 1574 511 1618.33315394 511 1748 c 1
 653 1748 l 1
 653 1589.33333333 597.333333333 1494.66666667 486 1464 c 0
 449.333333333 1453.33333333 393.833333333 1448 319.5 1448 c 128
 245.166666667 1448 183.666666667 1470.5 135 1515.5 c 128
 86.3333333333 1560.5 62 1638 62 1748 c 1
 204 1748 l 1
 203.333333333 1744 203 1740 203 1736 c 0
 203 1614.80509289 236.1792307 1574 357 1574 c 0
EndSplineSet
EndChar

StartChar: dotaccent
Encoding: 729 729 305
Width: 409
GlyphClass: 2
Flags: HMW
LayerCount: 2
Fore
SplineSet
109 1207 m 1
 110 1435 l 1
 306 1435 l 1
 307 1207 l 1
 109 1207 l 1
EndSplineSet
EndChar

StartChar: ring
Encoding: 730 730 306
Width: 702
GlyphClass: 2
Flags: HMW
LayerCount: 2
Fore
SplineSet
352.5 656 m 128
 500.58649754 656 610 554.684588078 610 402 c 0
 610 248.674101989 502.246313562 148 354 148 c 0
 284 148 223.666666667 170.333333333 173 215 c 128
 122.333333333 259.666666667 97 322 97 402 c 128
 97 554.688141311 204.372211408 656 352.5 656 c 128
338.5 538 m 128
 279.815461915 538 237 469.347175037 237 402 c 0
 237 310.666666667 279.666666667 265 365 265 c 0
 423.710131935 265 467 333.099190413 467 400 c 0
 467 482.18265736 425.64534887 538 338.5 538 c 128
EndSplineSet
EndChar

StartChar: ogonek
Encoding: 731 731 307
Width: 665
GlyphClass: 2
Flags: HMW
LayerCount: 2
Fore
SplineSet
288 -557 m 0
 153.333333333 -557 86 -507.666666667 86 -409 c 0
 86 -292.333333333 167 -161.666666667 329 -17 c 2
 348 0 l 1
 456 0 l 1
 372 -86 316 -174.666666667 288 -266 c 0
 279.333333333 -294 275 -319 275 -341 c 0
 275 -399.666666667 303 -429 359 -429 c 0
 400.333333333 -429 439.333333333 -419.666666667 476 -401 c 128
 512.666666667 -382.333333333 534.666666667 -373 542 -373 c 0
 567.333333333 -373 580 -386.666666667 580 -414 c 0
 580 -462 524.333333333 -502.666666667 413 -536 c 0
 364.333333333 -550 322.666666667 -557 288 -557 c 0
EndSplineSet
EndChar

StartChar: tilde
Encoding: 732 732 308
Width: 990
GlyphClass: 2
Flags: HMW
LayerCount: 2
Fore
SplineSet
642 379 m 0
 515.675551965 379 355.349108858 492 237.5 492 c 128
 177.352785788 492 147.038391008 470.034551907 117 443 c 128
 110.333333333 437 103.166666667 434 95.5 434 c 128
 87.8333333333 434 84 439 84 449 c 0
 84 468.333333333 94.6666666667 493 116 523 c 0
 180.666666667 614.333333333 255.333333333 660 340 660 c 0
 387.333333333 660 447.5 646.666666667 520.5 620 c 128
 593.5 593.333333333 647.5 574 682.5 562 c 128
 717.5 550 745 544 765 544 c 128
 817.993926107 544 849.151116825 571.448691804 877 595.5 c 128
 884.333333333 601.833333333 891.833333333 605 899.5 605 c 128
 907.166666667 605 911 598.166666667 911 584.5 c 128
 911 570.833333333 899.666666667 549.333333333 877 520 c 0
 803 426 724.666666667 379 642 379 c 0
EndSplineSet
EndChar

StartChar: hungarumlaut
Encoding: 733 733 309
Width: 1086
GlyphClass: 2
Flags: HMW
LayerCount: 2
Fore
SplineSet
499 1640 m 128
 548.185109985 1640 583 1583.67964212 583 1528 c 128
 583 1493.33333333 560.333333333 1463.33333333 515 1438 c 1
 501 1426.66666667 432.666666667 1399.5 310 1356.5 c 128
 187.333333333 1313.5 120.5 1292 109.5 1292 c 128
 98.5 1292 93 1297.33333333 93 1308 c 128
 93 1318.66666667 95.8333333333 1326.66666667 101.5 1332 c 128
 107.166666667 1337.33333333 115.666666667 1345.66666667 127 1357 c 0
 296.333333333 1530.33333333 404.666666667 1623.33333333 452 1636 c 0
 464 1638.66666667 479.666666667 1640 499 1640 c 128
938.5 1640 m 128
 995.302313635 1640 1031 1590.0134455 1031 1529 c 128
 1031 1494.33333333 1008.33333333 1464 963 1438 c 1
 949 1426 880.833333333 1398.66666667 758.5 1356 c 128
 636.166666667 1313.33333333 569.166666667 1292 557.5 1292 c 128
 545.833333333 1292 540 1297.5 540 1308.5 c 128
 540 1319.5 543.166666667 1327.83333333 549.5 1333.5 c 128
 555.833333333 1339.16666667 580 1363 622 1405 c 128
 681.378540214 1464.37854021 802.661133648 1580.40068706 868 1620 c 128
 890 1633.33333333 913.5 1640 938.5 1640 c 128
EndSplineSet
EndChar

StartChar: endash
Encoding: 8211 8211 313
Width: 1048
GlyphClass: 2
Flags: HMW
LayerCount: 2
Fore
SplineSet
941 754 m 1
 941 568 l 1
 114 568 l 1
 114 754 l 1
 941 754 l 1
EndSplineSet
EndChar

StartChar: emdash
Encoding: 8212 8212 314
Width: 1830
GlyphClass: 2
Flags: HMW
LayerCount: 2
Fore
SplineSet
1723 754 m 1
 1723 568 l 1
 114 568 l 1
 114 754 l 1
 1723 754 l 1
EndSplineSet
EndChar

StartChar: quoteleft
Encoding: 8216 8216 315
Width: 486
GlyphClass: 2
Flags: HMW
LayerCount: 2
Fore
SplineSet
252 1000 m 0
 150 1000 99 1067.33333333 99 1202 c 0
 99 1290.66666667 127.5 1371.16666667 184.5 1443.5 c 128
 241.5 1515.83333333 312.333333333 1552 397 1552 c 1
 397 1484 l 1
 310.290459522 1484 260 1384.14623514 260 1285 c 1
 348 1285 392 1235 392 1135 c 0
 392 1106.33333333 379.5 1076.66666667 354.5 1046 c 128
 329.5 1015.33333333 295.333333333 1000 252 1000 c 0
EndSplineSet
EndChar

StartChar: quoteright
Encoding: 8217 8217 316
Width: 486
GlyphClass: 2
Flags: HMW
LayerCount: 2
Fore
SplineSet
270 1552 m 128
 354.52734375 1552 404 1462.67773438 404 1350 c 0
 404 1262 375.333007812 1181.66699219 318 1109 c 128
 260.666992188 1036.33300781 189.666992188 1000 105 1000 c 1
 105 1068 l 1
 194.28125 1068 242 1166.07910156 242 1267 c 1
 154 1267 110 1317 110 1417 c 0
 110 1445.66699219 122.833007812 1475.33300781 148.5 1506 c 128
 174.166992188 1536.66699219 214.666992188 1552 270 1552 c 128
EndSplineSet
EndChar

StartChar: quotesinglbase
Encoding: 8218 8218 317
Width: 361
GlyphClass: 2
Flags: HMW
LayerCount: 2
Fore
SplineSet
171.5 300 m 128
 261.310185381 300 270 263.47699334 270 154 c 128
 270 87.3333333333 259.333333333 6 238 -90 c 128
 216.666666667 -186 204.5 -240.833333333 201.5 -254.5 c 128
 198.5 -268.166666667 191 -275 179 -275 c 0
 173.666666667 -275 158.5 -225 133.5 -125 c 128
 108.5 -25 96 57.5 96 122.5 c 128
 96 187.5 98.3333333333 228 103 244 c 0
 113.666666667 281.333333333 136.5 300 171.5 300 c 128
EndSplineSet
EndChar

StartChar: quotedblleft
Encoding: 8220 8220 318
Width: 966
GlyphClass: 2
Flags: HMW
LayerCount: 2
Fore
SplineSet
252 1000 m 0
 150 1000 99 1067.33333333 99 1202 c 0
 99 1290.66666667 127.5 1371.16666667 184.5 1443.5 c 128
 241.5 1515.83333333 313 1552 399 1552 c 1
 399 1484 l 1
 310.414840849 1484 260 1385.4723915 260 1285 c 1
 349.333333333 1285 394 1235 394 1135 c 0
 394 1106.33333333 381.166666667 1076.66666667 355.5 1046 c 128
 329.833333333 1015.33333333 295.333333333 1000 252 1000 c 0
714 1000 m 128
 630.165195177 1000 577 1089.33549359 577 1202 c 0
 577 1290.66666667 605.833333333 1371.16666667 663.5 1443.5 c 128
 721.166666667 1515.83333333 792.333333333 1552 877 1552 c 1
 877 1484 l 1
 789.521681937 1484 741 1384.6631618 741 1285 c 1
 828.333333333 1285 872 1235 872 1135 c 0
 872 1106.33333333 859.5 1076.66666667 834.5 1046 c 128
 809.5 1015.33333333 769.333333333 1000 714 1000 c 128
EndSplineSet
EndChar

StartChar: quotedblright
Encoding: 8221 8221 319
Width: 967
GlyphClass: 2
Flags: HMW
LayerCount: 2
Fore
SplineSet
750 1552 m 128
 834.52734375 1552 884 1462.67773438 884 1350 c 0
 884 1260.66699219 855.333007812 1180 798 1108 c 128
 740.666992188 1036 669.333007812 1000 584 1000 c 1
 584 1068 l 1
 674.221679688 1068 722 1165.41796875 722 1267 c 1
 633.333007812 1267 589 1317 589 1417 c 0
 589 1445.66699219 602 1475.33300781 628 1506 c 128
 654 1536.66699219 694.666992188 1552 750 1552 c 128
270 1552 m 128
 353.834960938 1552 407 1462.6640625 407 1350 c 0
 407 1262 377.833007812 1181.66699219 319.5 1109 c 128
 261.166992188 1036.33300781 189.666992188 1000 105 1000 c 1
 105 1068 l 1
 194.28125 1068 242 1166.07910156 242 1267 c 1
 154 1267 110 1317 110 1417 c 0
 110 1445.66699219 122.833007812 1475.33300781 148.5 1506 c 128
 174.166992188 1536.66699219 214.666992188 1552 270 1552 c 128
EndSplineSet
EndChar

StartChar: quotedblbase
Encoding: 8222 8222 320
Width: 646
GlyphClass: 2
Flags: HMW
LayerCount: 2
Fore
SplineSet
182 300 m 0
 263.674416697 300 270 257.189513536 270 151.5 c 128
 270 83.1666666667 258.333333333 -1.33333333333 235 -102 c 128
 208.641588625 -215.717717648 205.100597971 -250.578684465 196.5 -269.5 c 128
 194.833333333 -273.166666667 190.666666667 -275 184 -275 c 128
 177.333333333 -275 173.166666667 -273.666666667 171.5 -271 c 128
 169.833333333 -268.333333333 156.833333333 -218.333333333 132.5 -121 c 128
 108.166666667 -23.6666666667 96 57.5 96 122.5 c 128
 96 187.5 98.3333333333 228 103 244 c 0
 112.333333333 281.333333333 138.666666667 300 182 300 c 0
465 -275 m 256
 457 -275 453 -272.666666667 453 -268 c 0
 453 -262 441 -210.333333333 417 -113 c 0
 393 -15 381 64.6666666667 381 126 c 128
 381 218.6019335 376.775418071 249.775418071 411 284 c 128
 421.666666667 294.666666667 437.666666667 300 459 300 c 0
 495.666666667 300 520.666666667 292.666666667 534 278 c 128
 547.333333333 263.333333333 554 216.166666667 554 136.5 c 128
 554 56.8333333333 542.166666667 -30 518.5 -124 c 128
 494.833333333 -218 482 -266.666666667 480 -270 c 128
 478 -273.333333333 473 -275 465 -275 c 256
EndSplineSet
EndChar

StartChar: dagger
Encoding: 8224 8224 321
Width: 779
GlyphClass: 2
Flags: HMW
LayerCount: 2
Fore
SplineSet
802 959 m 0
 802 899.398211751 756.191097557 865 686.5 865 c 128
 643.5 865 559.666666667 889.666666667 435 939 c 1
 467 595 490.333333333 330.666666667 505 146 c 1
 505 54 469.666666667 8 399 8 c 256
 328.333333333 8 293 54 293 146 c 1
 322.275422882 497.305074581 323.046033383 513.019526353 362 939 c 1
 352.666666667 935.666666667 319.166666667 922.5 261.5 899.5 c 128
 203.833333333 876.5 153.666666667 865 111 865 c 0
 34.3333333333 865 -4 900.666666667 -4 972 c 0
 -4 1030.9816545 28.7833007906 1084 86.5 1084 c 128
 195.074963564 1084 285.789894325 1037.07878963 366 1007 c 1
 321.333333333 1209 299 1339.16666667 299 1397.5 c 128
 299 1455.83333333 309.166666667 1496.16666667 329.5 1518.5 c 128
 349.833333333 1540.83333333 373 1552 399 1552 c 0
 441.666666667 1552 472 1528.66666667 490 1482 c 0
 496 1464.66666667 499 1433.83333333 499 1389.5 c 128
 499 1345.16666667 476 1217.66666667 430 1007 c 1
 560 1058.33333333 650.333333333 1084 701 1084 c 0
 768.333333333 1084 802 1042.33333333 802 959 c 0
EndSplineSet
EndChar

StartChar: daggerdbl
Encoding: 8225 8225 322
Width: 991
GlyphClass: 2
Flags: HMW
LayerCount: 2
Fore
SplineSet
503 1552 m 0
 589.29296875 1552 650 1496.90136719 650 1401.5 c 128
 650 1339.25195312 634.131835938 1282.76171875 619.5 1229.5 c 128
 603.3515625 1170.72070312 582.162109375 1104.91308594 566 1047 c 1
 708.666992188 1105 801.333007812 1134 844 1134 c 0
 922.666992188 1134 962 1089.33300781 962 1000 c 0
 962 934.474609375 908.177734375 895 831.5 895 c 128
 783.833007812 895 695.333007812 923 566 979 c 1
 566 535 l 1
 700 591 789.666992188 619 835 619 c 128
 916.73828125 619 962 575.711914062 962 500 c 128
 962 436.637695312 919.099609375 381 857 381 c 128
 740.017578125 381 652.036132812 433.333984375 566 467 c 1
 574 436.333007812 590 383.333007812 614 308 c 128
 638 232.666992188 650 168.166992188 650 114.5 c 128
 650 18.2890625 591.823242188 -38 503 -38 c 0
 415.157226562 -38 355 16.6328125 355 112 c 128
 355 209.860351562 386.90625 292.935546875 411.5 373.5 c 128
 421.166992188 405.166992188 430.333007812 436.333007812 439 467 c 1
 307.666992188 409.666992188 218.666992188 381 172 381 c 128
 88.677734375 381 42 423.362304688 42 500 c 0
 42 579.333007812 85.6669921875 619 173 619 c 0
 220.333007812 619 309 591 439 535 c 1
 439 979 l 1
 306.333007812 923 217 895 171 895 c 0
 85 895 42 934.333007812 42 1013 c 0
 42 1090.00097656 87.9541015625 1134 171 1134 c 128
 217 1134 306.333007812 1105 439 1047 c 1
 431 1075.66699219 415 1128.66699219 391 1206 c 128
 367 1283.33300781 355 1348.16699219 355 1400.5 c 128
 355 1495.47753906 414.393554688 1552 503 1552 c 0
EndSplineSet
EndChar

StartChar: bullet
Encoding: 8226 8226 323
Width: 854
GlyphClass: 2
Flags: HMW
LayerCount: 2
Fore
SplineSet
436 1030 m 0
 543.333333333 1030 625.666666667 994 683 922 c 128
 740.333333333 850 769 764 769 664 c 256
 769 564 740 478 682 406 c 128
 624 334 541.333333333 298 434 298 c 0
 326 298 241.333333333 334 180 406 c 128
 118.666666667 478 88 563.333333333 88 662 c 0
 88 760 118.666666667 845.833333333 180 919.5 c 128
 241.333333333 993.166666667 326.666666667 1030 436 1030 c 0
EndSplineSet
EndChar

StartChar: ellipsis
Encoding: 8230 8230 324
Width: 1558
GlyphClass: 2
Flags: HMW
LayerCount: 2
Fore
SplineSet
229 -37 m 0
 145.131835938 -37 88 31.49609375 88 117 c 0
 88 201.655273438 136.586914062 271 229 271 c 0
 312.158203125 271 369 203.092773438 369 117 c 0
 369 34.041015625 320.928710938 -37 229 -37 c 0
641 118 m 128
 641 203.55078125 697.099609375 271 781 271 c 0
 861.653320312 271 922 211.809570312 922 117 c 0
 922 33.8720703125 874.541992188 -37 783 -37 c 0
 700.01953125 -37 641 33.076171875 641 118 c 128
1335 -37 m 0
 1254.64257812 -37 1195 21.3955078125 1195 117 c 0
 1195 211.16796875 1245.48632812 271 1349 271 c 128
 1420.28417969 271 1475 194.884765625 1475 117 c 0
 1475 34.041015625 1426.92871094 -37 1335 -37 c 0
EndSplineSet
EndChar

StartChar: guilsinglleft
Encoding: 8249 8249 325
Width: 678
GlyphClass: 2
Flags: HMW
LayerCount: 2
Fore
SplineSet
549 1254 m 0
 590.333333333 1254 611 1232 611 1188 c 0
 611 1170.66666667 603.333333333 1146.66666667 588 1116 c 1
 260 716 l 1
 588 316 l 1
 603.333333333 286.666666667 611 263 611 245 c 0
 611 200.333333333 589.333333333 178 546 178 c 0
 524 178 504 186 486 202 c 1
 105 574 l 2
 65 612.666666667 45 660 45 716 c 128
 45 772 65 819.333333333 105 858 c 2
 486 1229 l 1
 508.666666667 1245.66666667 529.666666667 1254 549 1254 c 0
EndSplineSet
EndChar

StartChar: guilsinglright
Encoding: 8250 8250 326
Width: 683
GlyphClass: 2
Flags: HMW
LayerCount: 2
Fore
SplineSet
81 1185 m 0
 81 1231 101.666666667 1254 143 1254 c 0
 163 1254 184 1245.66666667 206 1229 c 1
 587 858 l 2
 627 819.333333333 647 772 647 716 c 0
 647 661.333333333 627 614 587 574 c 2
 206 202 l 2
 189.333333333 186 169.666666667 178 147 178 c 0
 103 178 81 201 81 247 c 0
 81 266.333333333 88.6666666667 289.333333333 104 316 c 1
 431 716 l 1
 104 1116 l 1
 88.6666666667 1144 81 1167 81 1185 c 0
EndSplineSet
EndChar

StartChar: fraction
Encoding: 8260 8260 327
Width: 652
GlyphClass: 2
Flags: HMW
LayerCount: 2
Fore
SplineSet
678 1499 m 1
 82 0 l 1
 -42 0 l 1
 551 1499 l 1
 678 1499 l 1
EndSplineSet
EndChar

StartChar: Euro
Encoding: 8364 8364 328
Width: 1376
GlyphClass: 2
Flags: HMW
LayerCount: 2
Fore
SplineSet
954 650 m 1
 954 549 l 1
 40 549 l 1
 40 650 l 1
 954 650 l 1
40 823 m 1
 40 927 l 1
 954 928 l 1
 954 824 l 1
 40 823 l 1
1301 1166.5 m 128
 1301 1099.5 1298.33333333 1037.33333333 1293 980 c 1
 1110 980 l 1
 1108.66666667 1125.33333333 1104.5 1213.5 1097.5 1244.5 c 128
 1083.45125154 1306.71588605 1060.66739377 1331.72707443 1001 1348 c 128
 971.666666667 1356 909.666666667 1360 815 1360 c 128
 720.333333333 1360 651.833333333 1359.33333333 609.5 1358 c 128
 533.199864525 1355.59684613 473.92395257 1344.35149759 440.5 1303.5 c 128
 425.5 1285.16666667 413.666666667 1255 405 1213 c 128
 396.333333333 1171 392 1067.66666667 392 903 c 2
 392 594 l 2
 392 430 396.333333333 326.833333333 405 284.5 c 128
 421.327770217 204.745122402 440.988716225 173.353772636 511.5 153 c 128
 543.833333333 143.666666667 608.333333333 139 705 139 c 128
 801.666666667 139 869.666666667 139.5 909 140.5 c 128
 1020.2286355 143.327846665 1077.0426332 165.480608918 1097.5 259 c 128
 1104.5 291 1108.66666667 383.666666667 1110 537 c 1
 1293 537 l 1
 1296.33333333 467 1298 408 1298 360 c 0
 1298 150.666666667 1227.66666667 30.3333333333 1087 -1 c 1
 998.333333333 -19.6666666667 902.333333333 -29 799 -29 c 0
 670.913906777 -29 456.437927454 -6.44243921651 416 6 c 0
 332.666666667 31.3333333333 274.5 86.6666666667 241.5 172 c 128
 208.5 257.333333333 192 398 192 594 c 2
 192 903 l 2
 192 1094.33333333 208 1233.16666667 240 1319.5 c 128
 272 1405.83333333 324.333333333 1461.33333333 397 1486 c 128
 469.666666667 1510.66666667 569.333333333 1523 696 1523 c 128
 822.666666667 1523 921.833333333 1519.16666667 993.5 1511.5 c 128
 1132.47751865 1496.63263754 1223.64511676 1450.27156952 1268.5 1344 c 128
 1290.16666667 1292.66666667 1301 1233.5 1301 1166.5 c 128
EndSplineSet
EndChar

StartChar: trademark
Encoding: 8482 8482 329
Width: 1410
GlyphClass: 2
Flags: HMW
LayerCount: 2
Fore
SplineSet
506 1521 m 1
 506 1400 l 1
 348 1400 l 1
 348 643 l 1
 208 643 l 1
 208 1400 l 1
 57 1400 l 1
 57 1521 l 1
 506 1521 l 1
742 643 m 1
 595 643 l 1
 595 1521 l 1
 788 1521 l 1
 934 960 l 1
 1083 1521 l 1
 1273 1521 l 1
 1273 643 l 1
 1126 643 l 1
 1126 1116 l 1
 987 643 l 1
 878 643 l 1
 742 1116 l 1
 742 643 l 1
EndSplineSet
EndChar

StartChar: uniF6C3
Encoding: 63171 63171 330
Width: 637
GlyphClass: 2
Flags: HMW
LayerCount: 2
Fore
SplineSet
310 -140 m 0
 416.326665157 -140 482 -226.278225632 482 -356 c 0
 482 -444 452.166666667 -521.833333333 392.5 -589.5 c 128
 332.833333333 -657.166666667 258.333333333 -691 169 -691 c 1
 169 -631 l 1
 247.935930257 -627.904473323 297 -555.085345539 297 -466 c 1
 202.333333333 -460.666666667 155 -404 155 -296 c 0
 155 -264 169.166666667 -230 197.5 -194 c 128
 225.833333333 -158 263.333333333 -140 310 -140 c 0
EndSplineSet
EndChar

StartChar: uniFB01
Encoding: 64257 64257 331
Width: 1159
GlyphClass: 2
Flags: HMW
LayerCount: 2
Fore
SplineSet
185 1350 m 0
 185 1507.31614636 239.843774161 1579 399 1579 c 128
 456.333333333 1579 525 1573 605 1561 c 1
 605 1412 l 1
 382 1412 l 1
 382 1147 l 1
 1009 1147 l 1
 1009 0 l 1
 813 0 l 1
 813 1028 l 1
 382 1028 l 1
 382 0 l 1
 187 0 l 1
 187 1028 l 1
 59 1028 l 1
 59 1147 l 1
 187 1147 l 1
 187 1217.66666667 186.333333333 1280 185 1334 c 0
 185 1342 185 1342 185 1350 c 0
1009 1384 m 1
 813 1384 l 1
 813 1571 l 1
 1009 1571 l 1
 1009 1384 l 1
EndSplineSet
EndChar

StartChar: uniFB02
Encoding: 64258 64258 332
Width: 1147
GlyphClass: 2
Flags: HMW
LayerCount: 2
Fore
SplineSet
651.5 1576 m 128
 767.833333333 1576 883.666666667 1571 999 1561 c 1
 998 0 l 1
 804 0 l 1
 804 1412 l 1
 382 1412 l 1
 382 1147 l 1
 583 1147 l 1
 583 1028 l 1
 382 1028 l 1
 382 0 l 1
 187 0 l 1
 187 1028 l 1
 59 1028 l 1
 59 1147 l 1
 187 1147 l 1
 186 1220 l 1
 185 1316 l 2
 185 1393.33333333 189.833333333 1444.16666667 199.5 1468.5 c 128
 230.779483904 1547.23801121 306.173880496 1562.85952927 412 1571 c 128
 455.333333333 1574.33333333 535.166666667 1576 651.5 1576 c 128
EndSplineSet
EndChar

StartChar: glyph333
Encoding: 65538 -1 333
Width: 637
GlyphClass: 2
Flags: HMW
LayerCount: 2
Fore
SplineSet
310 -140 m 0
 416.326665157 -140 482 -226.278225632 482 -356 c 0
 482 -444 452.166666667 -521.833333333 392.5 -589.5 c 128
 332.833333333 -657.166666667 258.333333333 -691 169 -691 c 1
 169 -631 l 1
 247.935930257 -627.904473323 297 -555.085345539 297 -466 c 1
 202.333333333 -460.666666667 155 -404 155 -296 c 0
 155 -264 169.166666667 -230 197.5 -194 c 128
 225.833333333 -158 263.333333333 -140 310 -140 c 0
EndSplineSet
EndChar

